<?xml version="1.0" encoding="UTF-8"?>
<!DOCTYPE svg PUBLIC "-//W3C//DTD SVG 1.1//EN" "http://www.w3.org/Graphics/SVG/1.1/DTD/svg11.dtd">
<!-- Creator: CorelDRAW 2019 (64-Bit) -->
<svg xmlns="http://www.w3.org/2000/svg" xml:space="preserve" width="43.9791mm" height="63.7596mm" version="1.1" style="shape-rendering:geometricPrecision; text-rendering:geometricPrecision; image-rendering:optimizeQuality; fill-rule:evenodd; clip-rule:evenodd"
viewBox="0 0 4397.9 6375.95"
 xmlns:xlink="http://www.w3.org/1999/xlink">
 <defs>
  <style type="text/css">
   <![CDATA[
    .str0 {stroke:black;stroke-width:7.62;stroke-miterlimit:22.9256}
    .fil10 {fill:none}
    .fil6 {fill:#FFF212}
    .fil16 {fill:#F58634}
    .fil0 {fill:#201E1E}
    .fil2 {fill:black}
    .fil8 {fill:#13974F}
    .fil1 {fill:#F8A517}
    .fil7 {fill:#FFCD99}
    .fil15 {fill:#FFFF0F}
    .fil14 {fill:white}
    .fil17 {fill:white}
    .fil13 {fill:white}
    .fil12 {fill:#AB7305}
    .fil11 {fill:#373435;fill-rule:nonzero}
    .fil9 {fill:#201E1E;fill-rule:nonzero}
    .fil3 {fill:black;fill-rule:nonzero}
    .fil4 {fill:url(#id1)}
    .fil5 {fill:url(#id2)}
   ]]>
  </style>
    <clipPath id="id0">
     <path d="M-0 0l4397.9 0 0 6375.95 -4397.9 0 0 -6375.95z"/>
    </clipPath>
  <linearGradient id="id1" gradientUnits="userSpaceOnUse" x1="2262.99" y1="1036.7" x2="2135.25" y2="5290.8">
   <stop offset="0" style="stop-opacity:1; stop-color:#62C5CB"/>
   <stop offset="0.129412" style="stop-opacity:1; stop-color:#B0E1E4"/>
   <stop offset="1" style="stop-opacity:1; stop-color:#FEFEFE"/>
  </linearGradient>
  <linearGradient id="id2" gradientUnits="userSpaceOnUse" x1="2205.27" y1="5306.03" x2="2205.27" y2="4159.53">
   <stop offset="0" style="stop-opacity:1; stop-color:#00AFEF"/>
   <stop offset="0.160784" style="stop-opacity:1; stop-color:#7FD6F6"/>
   <stop offset="1" style="stop-opacity:1; stop-color:#FEFEFE"/>
  </linearGradient>
 </defs>
 <g id="Capa_x0020_1">
  <metadata id="CorelCorpID_0Corel-Layer"/>
  <g id="_2577003258592">
   <g style="clip-path:url(#id0)">
    <image x="-0" y="0" width="4397.9" height="6375.95" xlink:href="unap-isotipo_Images\unap-isotipo_ImgID1.png"/>
   </g>
  </g>
  <g id="_2577003261536">
   <path class="fil0 str0" d="M2198.96 423.46c946.52,0 1714.12,1225.34 1714.12,2736.3 0,1510.97 -767.6,2736.3 -1714.12,2736.3 -946.53,0 -1714.13,-1225.34 -1714.13,-2736.3 0,-1510.97 767.6,-2736.3 1714.13,-2736.3z"/>
   <path class="fil1" d="M2197.45 980.3c675.64,0 1223.57,979.78 1223.57,2187.96 0,1208.17 -547.93,2187.96 -1223.57,2187.96 -675.64,0 -1223.57,-979.79 -1223.57,-2187.96 0,-1208.18 547.93,-2187.96 1223.57,-2187.96zm1.5 -500.82c914.93,0 1656.92,1200.55 1656.92,2680.94 0,1480.4 -741.99,2680.95 -1656.92,2680.95 -914.93,0 -1656.92,-1200.56 -1656.92,-2680.95 0,-1480.4 741.99,-2680.94 1656.92,-2680.94z"/>
   <path class="fil2" d="M2200.44 5529.54c43.72,0 79.17,35.18 79.17,78.56 0,43.38 -35.45,78.56 -79.17,78.56 -43.72,0 -79.17,-35.18 -79.17,-78.56 0,-43.38 35.45,-78.56 79.17,-78.56z"/>
   <path class="fil3" d="M2198.95 5522.15c24.5,0 46.75,9.92 62.89,25.93 16.27,16.14 26.34,38.48 26.34,63.16 0,24.68 -10.07,47.02 -26.34,63.16 -16.14,16.01 -38.38,25.93 -62.89,25.93 -24.51,0 -46.75,-9.92 -62.89,-25.93 -16.27,-16.14 -26.34,-38.48 -26.34,-63.16 0,-24.68 10.07,-47.02 26.34,-63.16 16.14,-16.01 38.39,-25.93 62.89,-25.93zm49.06 41.15c-12.5,-12.41 -29.85,-20.1 -49.06,-20.1 -19.21,0 -36.55,7.69 -49.06,20.1 -12.38,12.28 -20.05,29.25 -20.05,47.94 0,18.69 7.67,35.65 20.05,47.94 12.51,12.41 29.85,20.1 49.06,20.1 19.21,0 36.55,-7.69 49.06,-20.1 12.38,-12.29 20.05,-29.25 20.05,-47.94 0,-18.69 -7.67,-35.66 -20.05,-47.94z"/>
   <path class="fil4 str0" d="M2199.12 1038.74c647.49,0 1172.59,951.59 1172.59,2125.01 0,1173.41 -525.1,2125.01 -1172.59,2125.01 -647.49,0 -1172.58,-951.6 -1172.58,-2125.01 0,-1173.42 525.09,-2125.01 1172.58,-2125.01z"/>
   <path class="fil5" d="M3273.65 4028.89c-259.77,891.85 -617.62,1277.12 -1068.38,1277.12 -450.77,0 -910.05,-496.24 -1071.86,-1264.42l921.79 126.44 1218.45 -139.14z"/>
   <path class="fil0" d="M2056.7 1559.1c36.08,40.48 58.46,90.41 62.69,151.74 36.38,-76.29 39.11,-180.15 29.67,-294 34.46,48.33 56.29,99.58 72.82,152.05 10.65,-72.72 3.54,-145.44 -15.68,-218.18 60.71,72.02 106.86,169.44 131.73,304l8.95 -97.12c46.04,74.42 62.35,178.14 74.41,286.04l29.73 -90.77c37.99,278.31 32.01,424.75 -86.95,462.95l-389.86 -18.83c-104.16,-143.12 -4.79,-305.68 54.83,-471.09 19.05,-52.86 20.64,-117.25 27.66,-166.79z"/>
   <path class="fil6" d="M1955.06 1926.02c60.53,-80.57 91.32,-179.46 117.87,-280.97 40.73,24.17 51.53,66.98 18.57,137.01 -50.62,103.41 -61.58,196.44 -8.61,272.75 -28.25,-78.61 -31.16,-164.45 28.26,-268.09 51.87,-76.4 64.48,-174.95 64.53,-280.57 46.38,62.55 57.29,144.92 43.93,240.81 -6.41,89.72 -66.58,202.11 -19.21,269.16 -13.3,-35.03 0.83,-98.25 18.9,-174.23 6.42,-26.99 7.82,-56.6 12.62,-86.25 12.68,-96.77 14.3,-199.82 4.82,-309.16 99.2,123.85 110.83,308.9 78.73,525.41 48.11,-71.37 35.76,-171.34 29.99,-304.74l14.98 -30.23c72.64,188.88 56.49,330.46 15.48,458.81 44.21,-59.81 58.07,-143.47 62.42,-234.58 37.33,164.01 27.83,304.61 -74.86,351.36l-378.73 -3.05c-57.14,-79.83 -80.54,-170.13 -29.69,-283.44z"/>
   <path class="fil2" d="M2114.45 3463.43c-53.62,-79.26 -109.38,-158.5 -168.96,-237.77 -34.26,-69.27 -30.67,-126.02 10.77,-170.29 -28.05,-53.62 -24.61,-105.53 -0.87,-154.99 -41.49,-77.52 -37.76,-134.32 15.63,-168.4 -11.64,-72.45 9.96,-111.04 72.45,-107.98l-4.6 -93.19c-62.43,-19.36 -115.92,-51.18 -157.57,-99.51l-15.68 -112.42c30.37,-34.26 70.12,-52.6 116.31,-58.94l-0.76 -61.79c141.6,-31.93 263.57,-18.01 379.27,10.57l-0.58 58.74c47.92,8.09 90.43,25.08 131.44,44.55 3.26,50.7 -0.21,98.17 -9.79,142.66 -55.35,35.25 -114.72,63.47 -178.95,83.2l-1.94 76.64c16.89,24.86 32.6,48.08 45.07,76.02 21.43,4.68 40.44,14 55.95,30.05l78.21 127.11c10.82,9.51 30.23,38.31 34.34,57.56 6.01,28.13 1.95,85.28 1.55,121.02 -0.91,79.91 -17.2,177.99 -45.62,290.44l-0.88 58.45c34.99,-0.46 41.21,43.52 34.36,107.69 -13.1,178.02 41.19,321.12 86.14,469.87 -3.57,1.36 -7.34,2.89 -11.28,4.6 -36.25,-36.48 -73.39,-38.77 -111.61,0.24 -63,-19.33 -90.22,3.71 -92.93,55.74 -59.49,-36.94 -114.71,-31.12 -162.34,50.9 -49.72,-26.93 -85.03,-15.88 -108.39,26.68 12.52,-202.64 21.61,-408.97 11.26,-627.45z"/>
   <path class="fil7" d="M2151 3850.42l0.33 -180.69c-2.43,-22.7 1.32,-41.49 18.65,-51.78 -34.48,-52.35 -23.21,-65.13 16.42,-53.36l40.36 -16.72 38.9 2.68c-13.81,47.16 -7.4,103.11 -1.35,164.51 3.63,36.83 2.84,75.64 9.53,115.69l15.25 114.21 2.21 -159.9c-15.89,-51.18 -24.53,-94.04 -14.5,-113.94l-5.67 -89.75 20.67 87.55 -8.46 -143.68c-22.39,1.16 -13.96,-10.82 3.12,-26.49l0.99 -27.87c-32.89,-33.35 -13.54,-69.03 29.17,-65.16l-14.81 -19.04 -13.71 -3.16c-43.2,-89.22 -48.81,-184.94 -1.14,-205.11 -12.76,-51.7 -39.23,-186.01 37.33,-101.56 3.98,-33.43 -14.66,-51.41 -40.33,-65.19 -2.12,-31.01 10.35,-53.25 21.46,-77.94 -28.97,-35.06 -28.78,-64.95 -4.39,-94.83 -25.25,-34.73 -25.29,-68.96 -26.7,-116.88 -76.16,-35.62 -90.6,-83.21 -63.35,-108.64 17.18,37.37 46.07,48.47 80.29,47.62 17.42,-5.22 36.88,23 57.27,66.4 0.06,18.8 7.15,35.15 22.02,49.8 33.38,-8.51 50.31,18.73 57.02,68.14 16.55,-10.36 24.93,-4.74 18.76,29.36 13.97,-2.75 17.05,17.26 15.21,47.6l-40.16 4.43 23.64 20.79 24.49 5.85 24.29 29.56 -0.59 73.37c-43.84,54.83 -45.41,91.85 -18.09,116.69 -2.27,90.41 -31.93,142.13 -74.04,176.25l7.65 47.14 39.86 -1.24c17.84,7.28 24.64,47.82 25.69,91.3l-32 -23.43 1.36 -24.65c-18.31,-7.84 -19.21,-29.3 -24.88,-9.82l-11.53 -0.14 0.74 29.35 47.23 56.85 49.3 219.27c16.45,3.71 16.77,16.65 12.46,33.79 8.72,4.78 13.31,18.16 15.11,37.43 -9.51,39.51 6.13,76.98 14.1,129.08 -23.28,-9.93 -46.91,-5.36 -70.99,15.54l-33.15 -164.2 10.02 168.16c-52.51,-11.44 -75.65,11.88 -78.14,59.64 -35.58,-22.1 -69.64,-28.88 -101.46,-13.22l-14.94 -49.92 7.09 54.27c-18.52,11.44 -36.25,30.87 -53.03,59.77 -44.24,-23.96 -77.07,-17.85 -100.23,13.77 3.32,-52.97 20.7,-97.24 21.32,-142.79l1.2 -67.36 17.13 -17.4z"/>
   <path class="fil8" d="M3273.98 4015.66c-18.72,82.93 -40.22,163.15 -64.35,240.21l-1262.15 -3.12c-11.77,-4.13 -25.53,-6.91 -40.3,-9 49.57,-75.86 32.41,-118.69 -27.55,-140.34 -1.78,-17.11 -14.54,-29.57 -38.28,-37.39 26.69,-68.73 53.36,-50.74 80.04,-6.86 41.68,-38.51 64.47,-14.71 80.43,31.65 35.9,-58.14 68.98,-43.44 100.92,0.87 23.35,-43.22 58.8,-54.58 108.83,-27.48 47.63,-82.02 102.85,-87.84 162.34,-50.9 2.71,-52.03 29.93,-75.07 92.93,-55.74 38.22,-39.01 75.36,-36.72 111.61,-0.24 47.85,-20.78 70.38,-16.66 37.17,42.22 16.99,16.52 18.13,35.48 8.44,56.15l10.72 4.68c24.95,-36.77 45.83,-29.81 64.86,-2.42 8.46,-38.16 27.83,-51.58 60.02,-35.95 6.89,-22.73 19.8,-36.63 41.52,-37.65 26.57,-56.61 47.86,-45.66 65.55,11.5 24.87,1.05 36.07,22.3 32.28,65.78 18.78,-15.92 41.01,-18.91 66.71,-8.96 -6,-35.85 9.31,-62.38 62.62,-72.37 7.51,-23.28 15.34,-47.68 31.48,-52.28 31.78,-9.06 89.7,16.57 104,56.19 7.5,20.74 -8.26,46.74 -21.69,70.57 27.05,-4.45 40.01,4.62 43.35,22.93 -1.79,-41.45 39.06,-54.96 88.5,-62.05z"/>
   <path class="fil9" d="M3283.76 4018.05c-9.35,41.43 -19.45,82.37 -30.25,122.69 -10.76,40.21 -22.22,79.7 -34.33,118.38l-2.27 7.26 -7.28 -0.02 -1262.15 -3.13 -1.68 0 -1.5 -0.53c-5.46,-1.92 -11.48,-3.54 -17.89,-4.94 -6.57,-1.43 -13.47,-2.61 -20.57,-3.61l-16.13 -2.28 9.18 -14.04c23.01,-35.22 30.71,-62.05 25.85,-81.99 -4.65,-19.06 -21.68,-32.84 -48.37,-42.48l-6.01 -2.17 -0.7 -6.67c-0.63,-5.94 -3.21,-11.15 -7.77,-15.59 -5.27,-5.15 -13.13,-9.45 -23.52,-12.87l-10.42 -3.44 4.09 -10.55c15.36,-39.57 32.33,-54.03 50.31,-52.15 14.66,1.53 28.25,14.61 41.25,33.86 20.49,-15.85 37.57,-17.82 52.2,-9.96 11.69,6.28 20.88,18.91 28.45,35.65 16.77,-21.16 33.65,-29.05 50.61,-27.08 16.55,1.92 32.09,13.51 46.95,31.37 11.73,-16.85 25.95,-27.8 42.86,-32.35 18.38,-4.94 39.38,-2.08 63.23,9.25 23.99,-38.41 50.15,-59.46 78,-66.72 25.79,-6.72 52.44,-1.54 79.72,12.66 3.6,-21.31 12.25,-37.24 26.84,-46.81 16.54,-10.84 40.01,-12.67 71.61,-3.92 19.71,-18.68 39.54,-27.5 59.43,-27.23 19.59,0.28 38.61,9.36 57.09,26.47 24.24,-9.82 42.85,-12.71 52.81,-4.98 11.24,8.72 10.81,26.89 -5.36,57.81 6.74,8.33 10.54,17.28 11.74,26.77 0.56,4.44 0.54,8.92 -0.02,13.47 10.17,-9.96 20.22,-14.09 30.15,-13.56 9.21,0.48 17.68,4.96 25.56,12.47 4.93,-12.17 11.62,-21.01 20.18,-26.33 10.6,-6.6 23.32,-7.53 38.25,-2.43 3.65,-8.39 8.34,-15.48 14.24,-21.07 7.22,-6.84 16.02,-11.24 26.62,-12.82 14.88,-29.59 29.86,-41.09 44.92,-37.2 13.58,3.5 24.96,20.61 34.5,48.9 12.68,2.32 22.17,9.52 28.32,21.84 4.41,8.84 6.83,20.34 7.19,34.53 6,-2.77 12.28,-4.59 18.83,-5.46 8.3,-1.12 16.95,-0.7 25.92,1.27 0.07,-14.32 3.95,-27.19 12.62,-38.19 10.49,-13.32 27.79,-23.28 53.66,-28.99 7.83,-24.01 16.77,-47.67 36.46,-53.27l0.02 0.04c19.03,-5.43 45.66,-0.3 68.69,12.15 21.03,11.35 39.57,28.97 47.32,50.45 7.29,20.18 -1.78,41.92 -13.1,62.91 6.76,0.6 12.52,2.32 17.36,5.07l0.02 -0.03c1.07,0.61 2.09,1.26 3.06,1.95 5.12,-10.81 13.81,-19.19 25.1,-25.78 17.46,-10.2 41.19,-15.67 67,-19.37l14.47 -2.07 -3.36 14.86zm-49.57 117.02c9.33,-34.88 18.2,-70.45 26.55,-106.66 -17.77,3.24 -33.61,7.7 -45.35,14.56 -12.83,7.5 -20.58,18.25 -19.89,34.29l-7.92 19.56 -11.97 -17.18c-1.08,-5.96 -3.55,-10.32 -7.71,-12.68l0 -0.03c-5.1,-2.9 -13.01,-3.63 -24.24,-1.79l-21 3.46 10.83 -19.17 2.08 -3.68c11.71,-20.7 24.26,-42.89 18.86,-57.85 -5.85,-16.21 -20.69,-29.98 -37.73,-39.18 -18.91,-10.21 -39.98,-14.65 -54.25,-10.58l0 0.04c-10.94,3.11 -17.89,24.65 -24.53,45.24l0 0.09 -0.07 0.21 -1.91 5.86 -5.83 1.08c-24.16,4.52 -39.38,12.37 -47.58,22.79 -7.66,9.72 -9.41,22.49 -6.91,37.41l3.02 18.01 -16.37 -6.33c-11.36,-4.39 -21.78,-5.96 -31.25,-4.69 -9.2,1.23 -17.78,5.21 -25.69,11.92l-18.45 15.65 2.15 -24.74c1.72,-19.67 0.24,-33.93 -4.28,-43 -3.63,-7.25 -9.81,-10.98 -18.41,-11.35l-6.98 -0.3 -2.17 -6.98c-7.73,-24.97 -15.19,-39.59 -22.3,-41.42 -5.78,-1.49 -13.89,8.25 -24.71,31.33l-2.63 5.59 -5.94 0.28c-8.38,0.4 -14.98,3.18 -20.04,7.97 -5.37,5.08 -9.4,12.71 -12.32,22.37l-3.45 11.4 -10.34 -5.03c-12.86,-6.24 -22.66,-7 -29.6,-2.69 -7.41,4.62 -12.85,15.27 -16.44,31.45l-4.98 22.45 -12.93 -18.63c-7.76,-11.16 -15.32,-18.15 -22.55,-18.53 -7.25,-0.39 -15.78,5.78 -26.01,20.86l-4.64 6.84 -7.38 -3.22 -10.72 -4.68 -9.84 -4.29 4.69 -10.02c3.98,-8.48 5.76,-16.43 4.84,-23.66 -0.87,-6.93 -4.42,-13.68 -11.11,-20.19l-5.92 -5.74 4.11 -7.3c13.37,-23.7 17.34,-34.98 14.49,-37.2 -4.16,-3.22 -18.49,1.06 -39.17,10.03l-6.06 2.64 -4.74 -4.77c-16.26,-16.36 -32.36,-25.06 -48.24,-25.28 -15.85,-0.21 -32.32,8.01 -49.43,25.48l-4.18 4.27 -5.6 -1.73c-28.56,-8.76 -48.44,-8.3 -60.98,-0.08 -11.95,7.84 -17.97,23.78 -19.14,46.28l-0.9 17.34 -14.23 -8.83c-27.51,-17.08 -53.73,-24.36 -78.11,-18 -24.62,6.41 -48.24,26.88 -70.55,65.29l-4.87 8.4 -8.29 -4.49c-22.74,-12.32 -41.76,-16.01 -57.36,-11.81 -15.2,4.09 -27.85,16.05 -38.16,35.13l-7.52 13.94 -9.22 -12.78c-14.37,-19.95 -28.47,-33.17 -42.06,-34.75 -12.87,-1.49 -26.85,8.03 -42.4,33.21l-10.99 17.82 -6.88 -19.95c-7.17,-20.82 -15.42,-36.34 -25.7,-41.86 -9.08,-4.88 -21.47,-1.35 -38.66,14.52l-8.79 8.13 -6.29 -10.35c-11.78,-19.38 -22.91,-32.98 -32.56,-33.99 -7.6,-0.78 -16.03,7.51 -25.6,29.2 8.44,3.75 15.37,8.27 20.77,13.54 6.5,6.35 10.79,13.69 12.87,22.02 30.12,12.02 49.65,29.89 55.79,55.1 5.58,22.85 -0.43,50.93 -20.25,85.22 2.21,0.41 4.39,0.85 6.52,1.32 6.54,1.42 12.78,3.09 18.64,5.07l1253.22 3.1c11.2,-36.09 21.82,-72.87 31.84,-110.3z"/>
   <path class="fil8" d="M1286.27 4517.45c-66.05,-151.51 -120.69,-320.37 -161.81,-502.33 24.51,-8.64 49.1,-18.43 72.9,-14.36 13.11,-58.63 39.87,-37.73 67.05,-14.27 -20.79,-46.1 -17.68,-68.21 9.33,-66.37 29.8,-74.1 86.99,-84.87 128.99,-22.96 37.92,-9.16 46.29,23.75 34.44,85.46 32.77,-28.38 49.08,-20.16 43.19,20.38 21.64,23.29 46.41,4.22 72.04,-26.75 -6.35,-38.78 -5.21,-73.09 48.43,-76.29 45.89,-64.82 79.96,-59.08 105.95,-5.08 66.52,-8.64 90.63,28.07 63.54,119.49 25.69,-10.01 39.08,10.09 46.86,43.87 49.04,5.23 74.86,20.28 77.46,45.17 59.96,21.65 77.11,64.48 27.54,140.34 39.88,5.64 72.35,16.31 78.33,44.91 28.58,-5.16 36.77,25.94 35.7,73.53 17.17,-33.55 38.67,-38.83 63.75,-20.67 26.51,-46.48 65.44,-40.43 81.22,-0.26 62.98,-34.64 118.16,-7.42 171.17,58.04 33.01,-64.71 81.33,-52.87 132.32,-27.68 30.36,-34.21 72.45,-38.2 128.71,-5.71 54.43,-7.74 86.72,28.31 114.42,73.46 36.88,-15.65 57.92,2.48 68.12,43.74 34.29,-18.28 34.3,-19.27 81.01,52.24l-1590.66 -17.9z"/>
   <path class="fil9" d="M1277.15 4521.8c-33.3,-76.39 -63.71,-157.15 -90.94,-241.69 -27.07,-84.03 -51.01,-171.75 -71.54,-262.6l-2.09 -9.27 8.66 -3.07 5.63 -2c20.83,-7.42 41.69,-14.85 62.98,-13.77 8.22,-28.75 21.08,-38.12 36.43,-37.04 5.67,0.4 11.37,2.44 17.07,5.55 -2.35,-9.51 -3.06,-17.55 -2.13,-24.11 2.13,-15.21 10.81,-23.29 26.03,-24.22 10.04,-22.61 22.75,-39.32 36.88,-49.81 9.75,-7.24 20.18,-11.6 30.89,-12.96 10.74,-1.37 21.71,0.29 32.53,5.06 13.82,6.09 27.28,17.3 39.49,33.77 20.98,-3.09 34.27,5.47 40.97,23.98 4.44,12.31 5.2,29.44 2.78,50.71 3.48,-1.83 6.75,-3.15 9.78,-3.95 6.83,-1.81 12.84,-1.26 17.96,1.58l0 0.04c5.27,2.94 9.01,7.95 11.1,14.93 1.97,6.59 2.47,15.26 1.38,25.91 6.27,4.78 12.9,4.79 19.75,1.55 9.66,-4.58 20.12,-14.63 30.97,-27.34 -2.84,-19.34 -3.43,-37.68 3.31,-52.73 7.35,-16.4 22.37,-27.76 50.52,-30.47 23.92,-32.63 45.74,-47.56 65.75,-47.47 20.16,0.09 37.03,14.71 51.16,41.3 33.81,-2.97 57.43,6.02 69.83,28.12 10.99,19.59 11.95,49.14 2.02,89.41 9.06,0.35 16.74,4.36 23.3,11.32 7.75,8.24 13.36,20.74 17.52,36.1 22.55,2.96 40.24,8.18 53.05,15.65 13.63,7.94 22.05,18.38 25.25,31.28 30.12,12.03 49.64,29.89 55.79,55.1 5.57,22.86 -0.43,50.93 -20.26,85.22 14.78,2.81 28.24,6.65 39.4,12.26 13.7,6.86 23.98,16.28 29.27,29.39 14.76,0.22 24.73,8.86 31.03,23.87l0 0.05c3.49,8.31 5.65,18.76 6.74,30.88 5.31,-4.83 10.95,-8.13 16.92,-9.94 11.07,-3.36 22.61,-1.59 34.58,4.93 8.8,-12.63 18.72,-20.91 28.81,-25.25 6.86,-2.96 13.79,-4.12 20.48,-3.6 6.77,0.52 13.32,2.74 19.37,6.51 7.82,4.89 14.76,12.43 20.2,22.29 30.76,-14.34 59.96,-15 88.11,-4.4 26.76,10.08 52.21,30.35 76.93,58.68 17.06,-26.82 37.54,-38.31 60.13,-40.29 22.74,-1.99 46.91,6.09 71.56,17.74 15.9,-15.71 34.59,-24.5 56.3,-25.73 22.49,-1.28 47.95,5.74 76.59,21.82 28.5,-3.25 51.47,4.56 71.04,19.16 17.63,13.17 32.17,31.71 45.43,52.43 18.22,-5.91 33.26,-4.06 45.54,4.46 10.85,7.53 18.92,20.11 24.63,36.97 31.83,-16.27 36.32,-10.44 83.19,61.32l10.86 16.63 -19.23 -0.22 -1590.66 -17.91 -6.39 -0.07 -2.65 -6.06zm-71.92 -248.35c26.3,81.68 55.58,159.72 87.53,233.58l1564.98 17.62c-30.64,-46.35 -33.19,-45.01 -56.22,-32.72l-0.02 -0.04 -1.02 0.55 -11.13 5.95 -3.13 -12.65c-4.48,-18.1 -10.97,-30.88 -19.9,-37.08 -8.27,-5.74 -19.67,-5.94 -34.74,0.46l-7.71 3.27 -4.51 -7.34c-13.25,-21.61 -27.5,-40.96 -44.56,-53.69 -16.34,-12.2 -35.73,-18.51 -60.09,-15.05l-3.29 0.47 -2.87 -1.65c-26.44,-15.28 -49.26,-22 -68.72,-20.89 -18.57,1.05 -34.44,9.47 -47.81,24.54l-4.99 5.62 -6.64 -3.28c-24.1,-11.9 -47.37,-20.67 -67.8,-18.89 -19.25,1.69 -36.79,13.36 -51.4,42l-6.95 13.65 -9.55 -11.8c-25.41,-31.37 -51.08,-53.49 -77.57,-63.47 -25.6,-9.64 -52.48,-7.89 -81.26,7.94l-9.75 5.37 -4.2 -10.67c-4.13,-10.52 -9.98,-18.1 -16.64,-22.26 -3.3,-2.06 -6.85,-3.27 -10.48,-3.55 -3.71,-0.28 -7.59,0.37 -11.46,2.03 -8.42,3.63 -17.04,11.89 -24.76,25.44l-5.49 9.62 -8.81 -6.38c-9.98,-7.21 -18.81,-9.91 -26.37,-7.61 -7.98,2.43 -15.62,10.46 -22.85,24.59l-19.84 38.79 0.98 -43.97c0.5,-22.31 -1.05,-40.52 -5.88,-52.08l-0.02 0.01c-3.49,-8.31 -9.24,-12.46 -18.09,-10.86l-9.45 1.72 -2.06 -9.86c-2.24,-10.7 -9.88,-18.28 -20.96,-23.83 -12.74,-6.39 -29.86,-10.21 -48.88,-12.9l-16.13 -2.28 9.17 -14.04c23.01,-35.22 30.71,-62.05 25.85,-81.99 -4.65,-19.06 -21.68,-32.84 -48.36,-42.48l-6.02 -2.17 -0.7 -6.67c-0.92,-8.83 -6.33,-16.14 -16.2,-21.89 -11.71,-6.83 -29.14,-11.48 -52.26,-13.94l-7.1 -0.76 -1.67 -7.22c-3.49,-15.14 -7.99,-26.97 -14.11,-33.47 -4.64,-4.93 -10.94,-6.38 -19.51,-3.04l-19.11 7.45 6.03 -20.36c12.67,-42.74 13.76,-71.99 4.28,-88.88 -8.68,-15.46 -28.02,-20.85 -57.01,-17.09l-6.99 0.91 -3.19 -6.63c-11.22,-23.3 -23.35,-36.19 -36.59,-36.25 -14.2,-0.06 -31.47,13.38 -52.34,42.86l-2.8 3.96 -4.71 0.28c-22.44,1.33 -33.55,8.41 -38.18,18.75 -5.08,11.32 -3.78,27.69 -0.9,45.28l0.81 4.88 -3.12 3.76c-13.69,16.53 -27.37,29.99 -40.98,36.44 -16.07,7.6 -31.49,6.2 -45.84,-9.24l-3.49 -3.76 0.74 -5.13c1.47,-10.11 1.45,-17.55 0.04,-22.24 -0.45,-1.52 -0.91,-2.42 -1.34,-2.68l-0.02 0.03c-0.59,-0.32 -1.82,-0.25 -3.66,0.24 -5.41,1.43 -12.75,6.04 -21.87,13.94l-21.8 18.89 5.57 -29.05c5.56,-28.93 6.54,-50.68 1.89,-63.54 -3.33,-9.22 -11.16,-12.78 -24.26,-9.62l-6.53 1.59 -3.88 -5.74c-10.99,-16.2 -22.89,-26.82 -34.79,-32.06 -7.46,-3.28 -15.02,-4.44 -22.39,-3.5 -7.38,0.94 -14.69,4.03 -21.62,9.18 -12.51,9.3 -23.88,25.16 -32.79,47.32l-2.77 6.9 -7.08 -0.48c-7.36,-0.51 -11.37,1.58 -12.03,6.24 -1.26,8.97 2.88,24.03 12.4,45.16l19.11 42.39 -34.55 -29.81c-12.3,-10.61 -24.4,-20.65 -33.11,-21.26 -6.59,-0.46 -12.69,7 -17.8,29.82l-2.13 9.56 -9.26 -1.59c-18.56,-3.18 -38.94,3.62 -59.4,10.88 19.95,87.11 43,171.09 68.88,251.45z"/>
   <path class="fil0" d="M1752.53 4841.74c-6.32,3.8 -11.06,4.54 -14.28,10.9 -8.65,17.1 -13.62,40.57 -13.44,65.17 -3.97,-28.14 -2.22,-85.17 -20.19,-40.05l-3.42 50.5 -8.27 -38.14 -22.58 43.78c5.57,-43.57 26.16,-79.38 73.64,-118.56 0.57,-0.48 3.11,-3.61 1.62,-6.75 -2.09,-4.4 -15.57,-15.4 -21.58,-11.39 -17.55,11.7 -31.75,27.95 -44.43,46.27 -1.94,2.8 -2.3,-5.88 4.3,-17.12 6.6,-11.25 24.28,-24.87 33.78,-35.21 3.12,-3.39 -6.67,-8.92 -9.11,-7.9 -0.89,0.37 -12.8,7.86 -24.16,20.11 -16.64,17.94 -30.97,43.42 -31.69,41.75 -4.59,-10.55 16.29,-44.8 37.61,-63.92 0.54,-0.47 -0.46,-3.76 -10.05,-6.36 -0.73,-0.2 -10.87,10.73 -20.35,25.62 -12.19,19.15 -24.42,43.37 -25.6,43.15 -9.18,-1.75 22.47,-74.28 22.86,-74.6 0.14,-0.12 -15.02,10.91 -25.21,27.82 -12.09,20.06 -19.65,46.47 -20.95,45.01 -1.18,-1.33 1.52,-28.98 11.72,-51.99 2.39,-5.41 5.52,-10.5 8.66,-15.01 1.01,-1.44 -17.5,11.54 -31.31,32.86 -11.57,17.85 -19.54,44.22 -19.36,43.22 0.75,-4.11 3.67,-34.47 7.2,-60.83 0.22,-1.7 -8.36,7.94 -15.72,21.32 -7.83,14.23 -14.48,32.28 -14.31,30.63 0.2,-1.79 -0.29,-27.78 8.58,-46.64 4.87,-10.35 20.88,-26.2 28.69,-36.59 18.14,-24.19 104.91,7.5 127.63,11.73 0.37,0.07 34.97,28.66 38.24,23.33 2.47,-4.02 1.65,-12.68 -0.28,-22.09 -2.09,-10.2 1.06,-15.11 -0.95,-22.31 -9.85,1.25 -26.15,-1.99 -35.8,1.89 -2,0.8 1.38,-2.9 8.15,-7.74 12.16,-8.7 19.56,-7.93 30.36,-6.65 2.9,0.34 -0.61,-7.34 -2.29,-7.69 -0.61,-0.14 -9.64,-0.48 -19.99,1.98 -15.16,3.6 -31.61,12.17 -31.44,11 1.08,-7.46 24.08,-18.38 42.19,-20.88 0.45,-0.06 1.02,-2.22 -3.33,-7.21 -0.33,-0.37 -9.56,1.82 -19.78,6.41 -13.14,5.92 -28.02,14.58 -28.59,14.02 -4.42,-4.37 37.44,-32.15 37.76,-32.18 0.12,-0.02 -11.89,0.36 -23.18,5.8 -13.39,6.44 -26.47,18.03 -26.69,16.75 -0.2,-1.16 10.66,-15.23 24.02,-23.99 3.14,-2.05 6.58,-3.67 9.82,-4.96 1.04,-0.42 -13.46,-0.22 -28.22,6.28 -8.91,3.91 -18.3,10.94 -22.69,14.37l-0.56 -0.38c4.2,-5.23 13.74,-17.47 22.59,-28.12 0.7,-0.84 -7.25,1.23 -15.8,5.78 -9.1,4.86 -18.85,12.23 -18.19,11.4 0.71,-0.91 9.41,-15.03 20.5,-22.25 31.43,-20.47 88.6,23 98.04,44.34 8.5,19.25 6.96,35.56 3.26,44.86 8.1,-6 21.3,-19.57 21.39,-19.58 22.71,-4.22 115.69,-49.86 133.84,-25.67 7.79,10.39 17.61,40.18 22.48,50.53 2.89,6.16 4.79,13.09 6.04,19.68 13.43,5.9 25.43,13.36 35.54,22.16 10.02,8.71 23.72,75.91 16.76,96.21 -0.72,2.09 -20,-59.99 -20.75,-57.5 -4.19,13.97 -6.81,37.73 -11.29,66.01 5.85,-30.93 -4.35,-67.91 -24.67,-89.12 4.9,33.18 2.34,120.12 -7.36,50.26 -5,-35.96 -13.33,-66.44 -28.66,-71.17 20.57,33.32 14.23,59.36 4.05,84.38 2.18,-31.71 -0.26,-61.63 -24.82,-82.96 -6.66,-7.56 -9.82,-6.55 -8.73,4.79 15.1,28.14 19.32,51.15 18.61,75.16 -5.22,-13.83 -17.99,-40.47 -25.41,-53.7 -4.2,-7.47 -9.38,-13.55 -14.9,-17.97 -0.01,1.34 -0.22,2.51 -0.64,3.49 -0.28,0.63 -2.53,-2.67 -6.13,-8 -4.9,-2.64 -9.87,-4 -14.49,-3.9 19.72,18.87 25.36,41.29 27.55,64.23 -2.29,-7.05 -6.43,-10.5 -9.51,-16.59 -16.37,-32.35 -44.39,-57.21 -58.02,-39.72 24.9,15.9 40.64,36.51 54.68,60.69 6.77,17.92 13.63,35.67 11.17,53.08 -3.63,-7.99 -6.17,-18.29 -12.22,-23.73 -4.95,18.46 -8.74,26.08 -18.05,38.43 5.66,-24.91 8.96,-49.05 3.91,-70.38 -1.32,-6.73 -4.59,-8.12 -9.8,-4.15 -3.15,22.02 -6.36,40.73 -12.92,59.18 2.1,-26.06 4.75,-52.12 1.77,-78.17l-13.79 -3.68c3.71,20.44 -2.5,34.15 -7.37,48.79 0.61,-22.66 -0.1,-44.96 -4.86,-66.09 -2.09,-7.59 -7.02,-13.76 -14.95,-17.79l0.1 11.3c-0.19,48.99 6.99,129.86 10.79,220.65l-56.43 -19.55c14.49,-67.27 26.98,-124.84 17.46,-167.66 -1.07,-4.84 -2.44,-9.5 -4.11,-13.96 -1.09,-2.91 -2.32,-5.77 -3.69,-8.52zm35.61 -52.79l3.24 5.48c3.89,6.45 7.78,5.9 11.68,2.16 5.08,-1.88 10.17,-3.57 15.26,-5.08 -3.93,-3.87 -8.26,-7.47 -13.26,-10.8 -0.92,-0.61 -6.93,-2.21 -8.12,-2.2l-8.8 10.44zm35.65 1c5.5,-1.5 11,-2.79 16.48,-3.87l-0.52 -0.56c-11.36,-12.25 -23.27,-19.74 -24.16,-20.11 -2.44,-1.02 -12.23,4.51 -9.11,7.91 4.59,4.99 11.07,10.75 17.31,16.63zm28.72 -5.97c3.92,-0.56 7.83,-1.01 11.72,-1.37 -9.49,-14.89 -19.62,-25.81 -20.35,-25.62 -9.59,2.6 -10.59,5.89 -10.05,6.37 6.5,5.84 12.97,13.07 18.68,20.62zm27.12 -2.28c4.78,-0.12 9.52,-0.09 14.19,0.09l-1.64 -2.8c-10.19,-16.91 -25.35,-27.94 -25.21,-27.82 0.17,0.14 6.48,14.47 12.66,30.53zm25.87 0.87c5.04,0.47 10.01,1.12 14.88,1.93 -13.19,-18.11 -28.55,-28.82 -27.64,-27.5 3.15,4.5 6.28,9.6 8.67,15.01 1.53,3.45 2.89,7 4.09,10.56zm32.76 5.79c4.44,1.18 8.77,2.51 13,3.98 -7.2,-12.73 -15.26,-21.74 -15.04,-20.09 0.71,5.29 1.39,10.74 2.04,16.11z"/>
   <path class="fil8" d="M2873.33 4926.89c-187.93,238.53 -430.94,381.88 -661.83,381.86 -230.89,-0.03 -418.69,-107.79 -594.75,-289.37 2.82,-1.44 5.98,-2.3 9.51,-2.43 2.24,0 4.88,-0.32 7.83,-0.89 0.27,-0.05 5.82,-29.63 10.33,-30.31 4.77,-0.74 32.24,11.62 36.55,10.05 7.16,-2.61 7.23,-24.09 12.81,-28.77 4.03,-3.36 7.51,4.87 12.27,5.76 16.29,3.04 35.86,15.59 41.37,11.25 14.93,-11.76 30.4,7.56 48.06,0.1 10.59,-4.47 29.98,-50.41 60.87,-42.03 8.33,2.25 14.17,4.09 25.01,9.75 12.25,6.4 30.56,31.52 44.39,39.46 5.91,3.39 33.01,-3.07 39.14,-1.38 38.93,10.73 42.09,26.18 63.42,3.11 27.34,-29.55 53.62,14.58 60.3,29.8 0.87,1.99 3.29,2.24 6.92,1.32 5.57,-1.4 1.05,-24.66 11.23,-29.54 6.41,-3.06 13.82,-8.95 23.63,-7.89 15.29,1.66 37,12.35 51.13,12.55 2.25,0.03 20.42,-31.02 22.55,-31.05 6.34,-0.1 7.72,5.73 11.43,8.56 11.16,8.51 16.8,24.2 27.55,44.48 0,0 19.55,-9.28 37.22,0.98 8.78,5.09 19.05,11.29 30.33,18.03 2.3,1.38 -1.66,7.42 7.02,4.2 5,-1.87 14.12,7.1 16.73,11.78 4.04,7.25 0.34,33.56 3.01,41.08 5.76,16.17 -6.36,-8.77 52.2,-12.82 6.31,-0.43 23.93,7.78 39.79,19.27 15.86,11.49 29.99,26.28 41.17,26.54 23.82,0.56 28.34,-58.96 55.19,-50.15 13.01,4.27 11.79,-11.02 13.27,-24.98 1.49,-13.96 9.02,-22.32 11.82,-25.18 5.86,-5.96 28.71,-14.53 43.07,-9.06 8.6,3.27 10,17.05 23.24,11.72 7.86,-3.16 -2.91,-17.31 1.81,-27.94 3.02,-6.83 9.26,-4.61 13.89,-10.98 5.54,-7.63 11.92,-32.23 18.25,-38.43 7.17,-7.03 15.18,-0.03 23.08,4.4 10.12,5.68 25.7,-15.48 37.9,-13.58 8.92,1.39 18.05,3 27.2,4.47 1.77,0.29 3.54,0.57 5.31,0.84 2.24,0.35 2.65,34.05 4.88,34.37 2.11,0.29 5.35,0.46 7.44,0.48 2.47,0.02 0.13,-21.55 2.21,-22.94 9.66,-6.45 22.14,-17.98 33.5,-20.11 5.7,-1.07 13.71,-2.77 22.39,-4.92 5.07,-1.24 15.21,-17.78 20.42,-19.29 11.41,-3.3 28.28,6.2 37.94,7.83z"/>
   <path class="fil9" d="M2888.81 4940.22c-96.19,122.08 -206.66,219.72 -322.65,286.65 -115.35,66.55 -236.4,102.86 -354.66,102.85 -118.67,-0.02 -226.23,-27.69 -326.66,-78.65 -99.91,-50.71 -192.62,-124.38 -282.15,-216.72l-20.14 -20.78 25.4 -13.02c2.75,-1.41 5.64,-2.52 8.65,-3.29l1.46 -0.35c3.74,-13.17 10.65,-30.01 23.45,-31.97 6.86,-1.06 16.39,2.27 26.25,5.73 0.9,0.31 1.57,0.73 2.07,1.18 2.08,-7.93 4.61,-15.51 11.38,-21.18l0.08 0c15.04,-12.58 23.28,-5.79 31.88,2.16 7.36,1.77 14.5,4.62 21.04,7.22 3.7,1.48 -4.5,11.69 1.18,7.22 15.95,-12.57 28.73,-8.64 42.11,-4.5 4.23,1.3 8.66,2.66 10.52,1.88 1.59,-0.67 0.95,-2.61 4.06,-6.61 14.64,-18.83 35.32,-45.46 69.3,-36.25 4.59,1.25 8.58,2.4 13.29,4.18 4.93,1.85 9.84,4.02 15.65,7.06 8.83,4.61 17.63,13.66 26.62,22.93 6.86,7.06 13.9,14.31 18.47,16.93 2.3,1.32 4.55,-2.14 10.8,-2.9 9.02,-1.1 17.43,-2.11 23.78,-0.37 12.97,3.58 22.26,7.6 29.58,10.78 6.43,2.78 8.95,3.86 14.36,-1.99l0.04 0.05c5.23,-5.65 10.62,-9.65 16.09,-12.27 10.99,-5.28 21.61,-5.18 31.5,-1.66 8.37,2.98 15.81,8.45 22.21,14.92 1.38,1.4 2.72,2.86 4.01,4.36 2.59,-3.21 6.03,-6.04 10.65,-8.25 0.36,-0.18 1.79,-0.97 3.27,-1.79 7.9,-4.38 16.97,-9.41 30.73,-7.92 8.94,0.97 18.39,4 27.8,7.01 8.43,2.7 16.85,5.39 21.53,5.46 9.61,0.15 -7.38,-3.51 -5.22,-6.8 7.95,-12.12 15.73,-24.07 27.3,-24.25 13.95,-0.21 19.04,6.36 24.06,12.85l0.08 0.08c0.01,0.03 0.01,0.04 -0.03,0.02l-0.09 0.08c11.83,9.24 17.98,21.32 25.61,36.68 10.2,-1.28 23.51,-0.62 36.54,6.94 9.86,5.72 16.6,9.76 23.81,14.08l6.75 4.04 0 0.07c0.76,0.46 1.46,0.91 2.11,1.37 4.93,0.75 9.66,2.92 13.94,5.94l0.08 0c6.17,4.34 12.34,11.43 15.02,16.23l0 0.09c3.52,6.34 4.46,14.64 4.66,23.24 8.29,-2.51 18.75,-4.5 31.92,-5.42 6.51,-0.44 16.19,2.32 26.46,7.28 7.95,3.86 17.2,9.32 25.98,15.69 4.93,3.58 9.41,7.19 13.7,10.65 7.93,6.39 15.08,12.16 16.47,12.19 0.84,0.02 3.14,-7.39 7.13,-14.78l0.03 0.02c9.98,-18.5 20.03,-37.04 40.5,-36.84 0.11,-1.34 0.25,-2.89 0.46,-4.86 1.1,-10.42 4.54,-18.88 8.22,-25.27l-0.06 -0.04c3.57,-6.18 7.5,-10.45 9.63,-12.62 5.54,-5.64 18.53,-12.34 31.78,-15.13 9.89,-2.08 20.78,-2.39 30.37,0.76 0.45,-1.52 1.01,-3.08 1.72,-4.66 4.77,-10.76 10.62,-13.53 16.89,-16.24 1.03,-2.26 2.74,-6.65 4.48,-11.14 4.18,-10.75 8.53,-21.94 15.24,-28.53l0.08 0c16.97,-16.61 30.02,-8.67 43.11,-0.68l0.08 0.09c0.62,0.37 1.35,0.82 3.08,1.79l-0.02 0.03c4.75,2.64 -2.91,-4.11 -0.83,-5.47 9.43,-6.15 19.14,-12.48 32.15,-10.45 1.47,0.23 8.53,1.42 15.7,2.62l0 0.01 11.57 1.91 0.01 -0.07 5.31 0.84 0 0.01c5.53,0.88 9.4,3.27 12.13,6.7 8.66,-6.35 18.31,-12.67 29.38,-14.74 2.32,-0.43 5.73,-1.14 10.24,-2.13 2.72,-0.59 6.47,-1.48 11.12,-2.63 3.51,-0.86 -1.77,-1.12 -0.18,-3.08l-0.04 -0.04c5.73,-6.74 11.53,-13.51 19.86,-15.92 13.55,-3.92 26.78,0.72 38.21,4.73 3.48,1.22 6.72,2.36 8.21,2.61l34.56 5.83 -22.22 28.22zm-341.98 249.8c97.11,-56.02 190.28,-134.52 273.99,-231.54 -0.43,0.13 -0.86,0.25 -1.3,0.35 -3.47,0.86 -7.58,1.81 -12.06,2.79 -3.65,0.8 -7.62,1.6 -11.34,2.29 -3.95,0.74 -11.11,6.1 -17.47,10.84l-0.49 0.37 -0.01 3.45 0 0.17c-0.14,15.83 -3.54,28.76 -21.44,28.55 -1.89,-0.02 -3.83,-0.08 -5.13,-0.16l0 -0.01c-1.58,-0.1 -3.27,-0.26 -4.82,-0.47l0 -0.02c-17.16,-2.43 -18.48,-19.38 -19.8,-36.31l0.04 0c0.52,0.01 6.13,0.81 11.08,1.52l0 -0.11 -1.83 -0.29 -0.07 -0.09 -7.23 -1.19 -1.95 0.16 1.95 -0.16 -4.5 -0.75 -0.08 0c-3.2,-0.53 -6.52,-1.09 -15.24,-2.44 -1.48,-0.23 -1.88,2.42 -5.12,4.53 -12.05,7.86 -23.76,15.46 -39.3,6.75l-0.08 0 -2.38 -1.42 -2.94 7.53c-3.21,8.24 -6.32,16.23 -10.55,22.08l0 0.08c-3.54,4.87 -6.97,7.51 -10.28,9.34l0.09 0.27 0.02 0c3.28,15.23 5.98,27.97 -14.33,36.14 -21.45,8.61 -29.61,-1.08 -38.01,-11.06l0 -0.08c-0.12,-0.15 0,-0.2 0.21,-0.21l0.34 -0.3c-2.44,-0.81 -6.33,-0.5 -10.35,0.34 -5.96,1.26 -10.57,3.01 -11.66,4.12 -0.67,0.68 -1.93,2.06 -3.18,4.23l-0.08 0c-1.14,1.98 -2.22,4.69 -2.59,8.2 -0.12,1.12 -0.3,3.42 -0.47,5.7 -0.45,6.01 -0.9,11.77 -2.63,17.58 -5.11,17.04 -14.87,26.43 -36.1,19.47 -1.06,-0.34 -2.89,7.68 -6.82,14.97l0 0.08c-9.88,18.29 -19.74,36.54 -42.8,36 -14.72,-0.35 -26.78,-10.09 -40.2,-20.91 -3.95,-3.19 -8.07,-6.51 -11.96,-9.33 -6.72,-4.87 -13.85,-9.08 -20.02,-12.07 -4.5,-2.17 -7.08,-3.5 -7.13,-3.5 -28.48,1.97 -33.1,7.69 -34.62,9.57l0 0.09c-3.1,3.83 -5.07,6.26 -11.76,7.98l-0.16 0.08c-18.03,4.43 -19.74,-1.28 -24.93,-16.38l-0.02 0.02 -0.82 -2.35 0.03 -0.01c-2.44,-7.02 -2.34,-16.06 -2.23,-25.52 0.08,-6.23 1.14,-11.06 0.71,-12.12l-0.03 0.01 -0.25 -0.36c-12.68,2.51 -18.88,-3.15 -22.63,-11.87l-0.23 -0.14c-10.07,-6.03 -19.23,-11.52 -23.35,-13.91 -8.74,-5.07 -19.98,0.17 -20,0.18l-16.42 6.87 -8.57 -16.16c-3.62,-6.84 -5.52,-10.64 -7.26,-14.14 -3.95,-7.96 -7.29,-14.69 -10.52,-19.19 -7.58,11.49 -15.49,22.28 -26.46,22.11 -10.46,-0.15 -21.57,-3.7 -32.69,-7.26 -7.48,-2.4 -15,-4.81 -20.25,-5.38 -1.63,-0.17 -5.01,1.7 -7.95,3.33 -1.47,0.82 -2.92,1.62 -5.31,2.76 -4.46,2.13 4.18,0.27 3.95,2.25 -1.54,13.28 -2.84,24.53 -18.8,28.59l0.01 0.02c-4.35,1.1 -8.46,1.41 -12.36,0.76 -8.14,-1.38 -14.11,-5.74 -17.59,-13.76l0.07 -0.03c-2.32,-5.27 -7.61,-14.94 -14.58,-21.99 -2.44,-2.47 -4.9,-4.43 -7.11,-5.21 -0.68,-0.24 -1.36,-0.28 -1.96,0 -1.16,0.56 -2.52,1.63 -4.03,3.27l0 0.08c-24.3,26.27 -33.89,22.12 -58.36,11.52 -6.13,-2.66 -13.9,-6.02 -24.55,-8.96 -1.03,-0.28 -3.81,0.88 -9.01,1.52 -12.28,1.48 -25.7,3.13 -34.69,-2.03 -9.3,-5.34 -18.4,-14.72 -27.27,-23.85 -6.61,-6.81 -13.06,-13.45 -16.41,-15.2 -5.03,-2.62 -8.47,-4.21 -11.24,-5.24 -2.98,-1.13 -6.1,-2.02 -9.83,-3.03 -9.04,-2.45 -20.23,11.93 -28.13,22.1 -6.7,8.63 -12.24,15.72 -20.26,19.11 -14.74,6.23 -25.98,2.76 -36.75,-0.57 -3.53,-1.09 -6.61,-2.35 -6.75,-2.24 -12.07,9.5 -24.73,4.45 -39.53,-1.45 -4.73,-1.89 -9.89,-3.95 -14.38,-5.16 -2.85,9.18 -7.24,17.5 -17.96,21.4 -8.76,3.2 -20.87,-1.05 -32.54,-5.14 -5.14,-1.8 -5.32,-4.28 -7.71,-3.91 -9.89,1.51 7.86,7.69 7.06,11.29 -0.67,2.97 -1.4,5.64 -2.39,7.98 79.9,79.22 162.36,142.78 250.29,187.4 95.2,48.3 197.01,74.54 309.22,74.55 111.23,0 225.71,-34.5 335.33,-97.76zm-875.01 -214.57c0.07,0.15 0.16,0.28 0.25,0.4l1.4 0.38c0.26,-0.04 0.55,-0.13 0.89,-0.25 3.99,-1.45 0.36,-0.76 -2.54,-0.53zm0.25 0.4c0.29,0.33 0.71,0.5 1.4,0.38l-1.4 -0.38zm555.78 -15.69l-0.08 0.07 0.09 0.07 0.09 -0.08 -0.1 -0.06zm-0.08 0.07l0.08 -0.07c-0.37,-0.22 -1.35,-0.91 -0.56,-0.3l0.48 0.37zm359.26 80.48l-0.17 -0.06 -0.3 0.27c0.59,0 1.61,0.22 0.47,-0.21zm-0.17 -0.06l-0.06 -0.03 -0.34 0.3 0.1 0 0.3 -0.27zm77.91 -70.06l0.04 0.04 -0.17 0.32c1.5,-1.61 2.33,-2.51 0.13,-0.36z"/>
   <polygon class="fil0" points="2398.15,4945.19 2395.13,4917.2 2407.58,4897.66 2410.39,4899.09 2412.66,4900.25 2413.16,4900.51 2414.42,4901.15 2417.09,4902.51 2423.98,4942.68 2416.41,5154.86 2398.49,5152.52 "/>
   <path class="fil9" d="M2388.13 4945.98l-2.98 -27.63 -0.4 -3.77 2.05 -3.22 12.45 -19.53 4.87 -7.64 7.86 4.01 2.82 1.44 2.26 1.15 0.5 0.26 -0.01 0.02 1.24 0.63 0.04 0 2.66 1.36 4.56 2.32 0.9 5.28 6.89 40.17 0.2 1.12 -0.04 1.09 -7.57 212.19 -0.4 11.49 -10.84 -1.41 -17.92 -2.35 -8.78 -1.15 -0.02 -9.29 -0.34 -206.54zm17.38 -26.17l2.61 24.23 0.04 0.35 0 0.8 0.26 152.67 5.5 -154.46 -4.97 -28.97 -3.44 5.38z"/>
   <line class="fil10" x1="2410.39" y1="4899.09" x2="2493.33" y2= "4795.46" />
   <polygon class="fil9" points="2406.03,4895.27 2488.96,4791.63 2497.69,4799.28 2414.76,4902.92 "/>
   <line class="fil10" x1="2410.08" y1="4893.31" x2="2481.19" y2= "4784.92" />
   <polygon class="fil9" points="2405.38,4889.96 2476.49,4781.57 2485.89,4788.27 2414.78,4896.67 "/>
   <line class="fil10" x1="2411.88" y1="4884.49" x2="2463.2" y2= "4773.07" />
   <polygon class="fil9" points="2406.76,4881.9 2458.08,4770.48 2468.32,4775.66 2417,4887.08 "/>
   <line class="fil10" x1="2411.71" y1="4879.21" x2="2438.13" y2= "4768.32" />
   <polygon class="fil9" points="2406.19,4877.79 2432.6,4766.9 2443.65,4769.74 2417.24,4880.63 "/>
   <line class="fil10" x1="2410.07" y1="4891.61" x2="2419.97" y2= "4766.02" />
   <polygon class="fil9" points="2404.39,4891.12 2414.29,4765.53 2425.65,4766.51 2415.75,4892.1 "/>
   <line class="fil10" x1="2409.33" y1="4897.64" x2="2400.42" y2= "4765.91" />
   <polygon class="fil9" points="2403.65,4898.06 2394.74,4766.33 2406.1,4765.49 2415.01,4897.22 "/>
   <line class="fil10" x1="2411.07" y1="4905.01" x2="2522.16" y2= "4978.16" />
   <polygon class="fil9" points="2416.41,4896.13 2527.5,4969.28 2516.82,4987.04 2405.73,4913.89 "/>
   <line class="fil10" x1="2418.91" y1="4904.9" x2="2536.67" y2= "4960.06" />
   <polygon class="fil9" points="2422.99,4895.32 2540.76,4950.48 2532.58,4969.65 2414.82,4914.48 "/>
   <line class="fil10" x1="2427.52" y1="4904.93" x2="2546.56" y2= "4935.57" />
   <polygon class="fil9" points="2429.92,4894.73 2548.96,4925.37 2544.17,4945.77 2425.13,4915.12 "/>
   <line class="fil10" x1="2432.42" y1="4903.68" x2="2552.74" y2= "4913.43" />
   <polygon class="fil9" points="2433.17,4893.19 2553.48,4902.95 2551.99,4923.92 2431.67,4914.16 "/>
   <line class="fil10" x1="2420.49" y1="4904.54" x2="2559.37" y2= "4891.24" />
   <polygon class="fil9" points="2419.97,4898.62 2558.86,4885.32 2559.88,4897.16 2421,4910.46 "/>
   <line class="fil10" x1="2414.7" y1="4905.03" x2="2552.48" y2= "4867.29" />
   <polygon class="fil9" points="2413.28,4899.27 2551.05,4861.53 2553.9,4873.05 2416.13,4910.78 "/>
   <line class="fil10" x1="2412.62" y1="4908.64" x2="2504.2" y2= "4998.29" />
   <polygon class="fil9" points="2419.46,4900.99 2511.04,4990.64 2497.36,5005.94 2405.79,4916.29 "/>
   <line class="fil10" x1="2408.92" y1="4899.03" x2="2486.41" y2= "5017.29" />
   <polygon class="fil9" points="2417.21,4893.11 2494.7,5011.37 2478.12,5023.21 2400.63,4904.95 "/>
   <line class="fil10" x1="2412.78" y1="4909.82" x2="2280.21" y2= "4909.02" />
   <polygon class="fil9" points="2412.74,4920.3 2280.17,4919.51 2280.25,4898.54 2412.82,4899.33 "/>
   <line class="fil10" x1="2405.98" y1="4905.75" x2="2279.43" y2= "4888.58" />
   <polygon class="fil9" points="2405.27,4911.64 2278.72,4894.48 2280.15,4882.68 2406.69,4899.85 "/>
   <polyline class="fil10" points="2398.43,4901.4 2280.58,4866.76 2293.4,4870.15 "/>
   <polygon class="fil9" points="2396.89,4907.14 2279.23,4872.55 2279.2,4872.55 2279.04,4872.5 2281.96,4860.98 2294.78,4864.37 2294.7,4864.72 2399.97,4895.67 "/>
   <line class="fil10" x1="2394.73" y1="4897.82" x2="2284.6" y2= "4837.61" />
   <polygon class="fil9" points="2392.1,4903.09 2281.97,4842.88 2287.23,4832.34 2397.35,4892.55 "/>
   <line class="fil10" x1="2404.76" y1="4904.63" x2="2296.31" y2= "4823.3" />
   <polygon class="fil9" points="2401.44,4909.48 2293,4828.14 2299.63,4818.45 2408.08,4899.79 "/>
   <line class="fil10" x1="2409.6" y1="4907.99" x2="2306.02" y2= "4800.71" />
   <polygon class="fil9" points="2405.59,4912.21 2302.02,4804.93 2310.03,4796.49 2413.61,4903.77 "/>
   <line class="fil10" x1="2409.74" y1="4912.2" x2="2281.76" y2= "4945.25" />
   <polygon class="fil9" points="2412.14,4922.4 2284.15,4955.45 2279.36,4935.05 2407.35,4902 "/>
   <line class="fil10" x1="2410.74" y1="4912.76" x2="2355.59" y2= "5021.52" />
   <polygon class="fil9" points="2419.61,4917.7 2364.47,5026.46 2346.71,5016.59 2401.86,4907.83 "/>
   <line class="fil10" x1="2404.17" y1="4917.23" x2="2341.17" y2= "5016.43" />
   <polygon class="fil9" points="2412.54,4923.03 2349.54,5022.23 2332.8,5010.63 2395.8,4911.43 "/>
   <line class="fil10" x1="2397.02" y1="4922.27" x2="2322.43" y2= "5005.73" />
   <polygon class="fil9" points="2404.33,4929.43 2329.74,5012.88 2315.12,4998.57 2389.71,4915.12 "/>
   <line class="fil10" x1="2392.29" y1="4924.08" x2="2303.87" y2= "4991.15" />
   <polygon class="fil9" points="2398.18,4932.59 2309.76,4999.66 2297.97,4982.64 2386.39,4915.57 "/>
   <line class="fil10" x1="2402.66" y1="4917.86" x2="2295.05" y2= "4974.37" />
   <polygon class="fil9" points="2407.14,4927.23 2299.54,4983.75 2290.57,4965 2398.18,4908.48 "/>
   <line class="fil10" x1="2407.73" y1="4914.88" x2="2287.65" y2= "4955.45" />
   <polygon class="fil9" points="2410.79,4924.87 2290.71,4965.43 2284.59,4945.46 2404.67,4904.9 "/>
   <line class="fil10" x1="2411.37" y1="4916.67" x2="2378.75" y2= "5036.04" />
   <polygon class="fil9" points="2421.03,4919.55 2388.42,5038.91 2369.09,5033.16 2401.71,4913.8 "/>
   <line class="fil10" x1="2412.66" y1="4900.25" x2="2521.73" y2= "4828.88" />
   <polygon class="fil9" points="2409.65,4895.19 2518.72,4823.82 2524.73,4833.94 2415.66,4905.31 "/>
   <line class="fil10" x1="2404.81" y1="4896.91" x2="2376.56" y2= "4768.2" />
   <polygon class="fil9" points="2399.26,4898.24 2371.01,4769.53 2382.11,4766.87 2410.36,4895.58 "/>
   <path class="fil9" d="M1509.1 4400.53c-7.84,-27.37 -5.3,-49.97 4.11,-68.84 9.2,-18.45 24.85,-32.81 43.6,-44.33 2.39,-1.47 6.35,-9.98 10.43,-18.74 6.35,-13.65 12.92,-27.78 23.57,-31.83 11.04,-4.2 27.35,-4.84 41.51,0.63 11.73,4.54 22.23,13.13 27.77,27.1l-18.54 8.05c-3.11,-7.82 -9.23,-12.74 -16.14,-15.41 -9.65,-3.73 -20.54,-3.38 -27.76,-0.63 -2.94,1.11 -7.72,11.39 -12.34,21.31 -5.4,11.6 -10.65,22.87 -18.36,27.62 -15.75,9.67 -28.73,21.38 -35.98,35.94 -7.04,14.12 -8.82,31.51 -2.63,53.13l-19.24 6z"/>
   <path class="fil9" d="M1335.16 4326.77c-7.84,-27.38 -5.3,-49.98 4.11,-68.85 9.2,-18.44 24.85,-32.8 43.6,-44.32 2.39,-1.47 6.35,-9.98 10.43,-18.74 6.35,-13.65 12.92,-27.78 23.58,-31.84 11.03,-4.19 27.35,-4.83 41.5,0.64 11.74,4.54 22.23,13.13 27.77,27.1l-18.54 8.05c-3.1,-7.83 -9.23,-12.74 -16.14,-15.41 -9.65,-3.73 -20.53,-3.38 -27.76,-0.63 -2.94,1.11 -7.72,11.39 -12.34,21.3 -5.4,11.61 -10.65,22.88 -18.36,27.62 -15.75,9.68 -28.73,21.4 -35.98,35.94 -7.05,14.12 -8.82,31.51 -2.62,53.14l-19.25 6z"/>
   <path class="fil9" d="M1639.58 4107.38c22.38,-1.93 38.06,-2.27 49.24,3.72 11.2,6.01 16.61,16.51 17.22,34.73 7.58,0.58 18.11,2.48 28.38,12.01 8.63,8.01 16.78,19.01 21.72,30.46 3.86,8.97 5.88,18.42 4.94,27.37 -1.04,9.82 -5.47,18.73 -14.53,25.46 -5.73,4.26 -13.29,7.55 -23.01,9.44l-3.69 -20.64c6.73,-1.32 11.66,-3.36 15.07,-5.9 3.88,-2.88 5.77,-6.61 6.2,-10.66 0.52,-4.93 -0.81,-10.67 -3.29,-16.43 -3.79,-8.78 -10.05,-17.24 -16.69,-23.39 -6.84,-6.35 -14.91,-6.74 -19.79,-6.97 -9.77,-0.47 -15.85,-0.76 -15.39,-12.82 0.56,-14.27 -1.35,-21.37 -6.25,-24 -6.65,-3.55 -19.51,-3.05 -38.48,-1.41l-1.65 -20.97z"/>
   <path class="fil9" d="M1490.8 4124.48l1.2 -5.49c5.65,-25.78 8.45,-38.55 18.28,-45.81 9.54,-7.05 21.17,-5.62 43.9,-2.6 6.2,-18.16 14.24,-30.11 23.84,-36.68 12.23,-8.4 26,-8.22 40.99,-1.08l-8.32 19.16c-8.51,-4.05 -15.83,-4.48 -21.67,-0.48 -7.05,4.83 -13.19,15.64 -18.24,33.53l-2.41 8.56 -8.43 -1.12 -7.25 -0.95 -0.03 0c-18.23,-2.43 -27.45,-3.65 -30.83,-1.15 -3.53,2.6 -5.76,12.77 -10.26,33.31l-1.21 5.49 -19.56 -4.69z"/>
   <path class="fil9" d="M1208.3 4078.09l4.7 -0.31c22.43,-1.49 33.54,-2.21 42.22,4.94l0.02 -0.03c8.32,6.86 10.19,17.42 13.39,37.9 15.93,1.06 27.48,5.23 35.23,12.08 10.17,8.99 13.58,21.58 11.53,37.02l-19.88 -2.88c1.07,-8.06 -0.27,-14.26 -4.62,-18.1 -5.44,-4.82 -15.45,-7.43 -30.81,-7.41l-8.51 0.01 -1.39 -8.81 -1.04 -6.62c-2.56,-16.35 -3.85,-24.63 -6.32,-26.66l0 -0.04c-2.59,-2.14 -11.19,-1.58 -28.57,-0.43l-0.04 0 -4.73 0.31 -1.18 -20.97z"/>
   <path class="fil9" d="M1253.44 4357.52l4.57 1.32c21.71,6.27 32.46,9.38 38.4,19.08 5.73,9.34 4.2,19.95 0.86,40.36 14.72,6.44 24.32,14.34 29.52,23.5 6.8,11.98 6.12,25.03 -0.65,38.93l-17.92 -9.54c3.54,-7.26 4.19,-13.58 1.28,-18.7 -3.61,-6.37 -12.24,-12.24 -26.79,-17.47l-8.07 -2.91 1.43 -8.81 1.09 -6.63c2.68,-16.35 4.05,-24.64 2.36,-27.38 -1.8,-2.95 -10.11,-5.36 -26.86,-10.2l-4.57 -1.33 5.35 -20.22z"/>
   <path class="fil9" d="M1701.99 4312.53c9.91,2.63 17.41,3.7 23.06,4.5 25.1,3.56 28.16,4 23.81,37.36 2.8,1.14 5.45,2.34 7.95,3.6l0.04 0c10.97,5.53 19.27,12.33 24.33,20.08 5.83,8.92 7.46,18.81 4.28,29.27 -0.55,1.81 -1.2,3.53 -1.93,5.12l-18.08 -9.13c0.42,-0.89 0.72,-1.67 0.92,-2.32 1.17,-3.86 0.5,-7.62 -1.77,-11.1 -3.04,-4.65 -8.67,-9.07 -16.48,-13.01l0.01 -0.01c-3.99,-2.01 -8.48,-3.85 -13.39,-5.49l-8.14 -2.72 1.23 -8.8c2.91,-20.85 2.49,-20.92 -5.44,-22.05 -6.28,-0.89 -14.61,-2.08 -25.27,-4.9l4.87 -20.4z"/>
   <path class="fil10" d="M2115.33 4373.87c10,-30.41 62.41,-22.71 54.84,24.06 44.26,-10.68 63.01,51.05 52.7,72.23"/>
   <path class="fil9" d="M2105.82 4370.46c4.61,-14.04 15.64,-22.24 27.91,-24.55 5.76,-1.08 11.81,-0.84 17.56,0.73 5.82,1.59 11.39,4.56 16.09,8.88 7.54,6.94 12.87,17.19 13.52,30.66 7.64,0.12 14.57,2.08 20.75,5.37 8.79,4.69 15.92,12.1 21.33,20.69 5.19,8.25 8.81,17.62 10.8,26.66 2.99,13.62 2.37,27.14 -1.95,36.02l-17.91 -9.53c2.23,-4.58 2.27,-12.79 0.29,-21.79 -1.5,-6.82 -4.18,-13.81 -7.97,-19.84 -3.57,-5.67 -8.16,-10.5 -13.7,-13.46 -5.53,-2.94 -12.26,-4.03 -20.12,-2.13l-14.65 3.54 2.51 -15.5c1.94,-12.04 -1.06,-20.26 -6.1,-24.9 -2.31,-2.11 -5.05,-3.58 -7.92,-4.36 -2.97,-0.81 -6.08,-0.94 -8.99,-0.39 -5.51,1.03 -10.43,4.62 -12.43,10.73l-19.02 -6.83z"/>
   <path class="fil10" d="M1825.78 4225.02c40.42,10.72 44.09,-3.39 38.21,38.67 30.58,10.21 76.17,38.24 32.99,80.1"/>
   <path class="fil9" d="M1828.22 4214.82c9.9,2.62 17.4,3.69 23.06,4.49 25.08,3.56 28.15,4 23.81,37.37 13.36,5.39 27.92,13.66 37.62,24.61 4.84,5.48 8.55,11.63 10.49,18.44 2.04,7.13 2.14,14.87 -0.37,23.12 -2.77,9.08 -8.79,18.68 -19.06,28.63l-13.59 -15.38c7.54,-7.31 11.81,-13.83 13.56,-19.59 1.18,-3.89 1.15,-7.5 0.21,-10.77 -1.02,-3.62 -3.14,-7.05 -5.94,-10.22 -8.98,-10.15 -24.38,-17.61 -37.05,-21.84l-8.14 -2.72 1.23 -8.79c2.91,-20.86 2.5,-20.93 -5.44,-22.06 -6.28,-0.89 -14.6,-2.07 -25.26,-4.9l4.87 -20.39z"/>
   <path class="fil11" d="M2479.04 4202.89c-13.64,-13.84 -17.48,-27.52 -15.29,-38.52 1.09,-5.46 3.64,-10.19 7.23,-13.98 3.41,-3.58 7.76,-6.28 12.66,-7.86 9.01,-2.92 20.17,-2.11 30.71,3.79 6.83,-10.26 14.79,-19.23 25.01,-19.16l0.04 0c12.58,0.1 24.26,14.75 32.36,60.07l-19.73 3.87c-5.78,-32.4 -9.8,-42.89 -12.77,-42.97 -2.36,0.03 -8.37,9.85 -13.66,18.56l-6.29 10.39 -8.83 -8.12c-7.2,-6.63 -15.17,-8.23 -20.94,-6.36 -1.76,0.56 -3.26,1.46 -4.34,2.59 -0.89,0.94 -1.54,2.13 -1.8,3.46 -0.89,4.5 1.64,11.08 9.64,19.19l-14 15.05z"/>
   <path class="fil11" d="M2797.48 4167.22c-14.05,-13.45 -18.28,-26.99 -16.4,-38.01 0.93,-5.5 3.35,-10.33 6.86,-14.23 3.31,-3.69 7.58,-6.52 12.44,-8.24 8.91,-3.19 20.08,-2.71 30.79,2.89 6.55,-10.47 14.28,-19.71 24.53,-19.93 12.57,-0.28 24.67,14 34.01,59.07l-19.65 4.44c-6.69,-32.28 -11,-42.61 -13.98,-42.54 -2.3,0.04 -8.05,10.05 -13.09,18.94l-6 10.57 -9.05 -7.86c-7.35,-6.38 -15.37,-7.73 -21.12,-5.67 -1.74,0.62 -3.22,1.55 -4.27,2.72 -0.86,0.96 -1.46,2.14 -1.68,3.46 -0.77,4.56 1.93,11.09 10.12,18.93l-13.51 15.46z"/>
   <path class="fil11" d="M3026.4 4224.25c-12.1,-11.59 -20.69,-22.45 -25,-32.1 -3.38,-7.55 -4.38,-14.7 -2.75,-21.28 1.73,-7 6.16,-12.71 13.51,-16.9 2.43,-1.39 5.21,-2.61 8.36,-3.66 -0.1,-0.62 -0.18,-1.27 -0.24,-1.92 -0.8,-8.23 2.11,-18.42 7.07,-26.75 5.18,-8.71 12.9,-15.99 21.45,-17.93 13.73,-3.12 27.78,5.46 34.63,38.47l-19.65 4.44c-3.66,-17.65 -7.59,-23.05 -10.73,-22.34 -2.86,0.64 -6.07,4.13 -8.65,8.46 -2.81,4.71 -4.52,9.91 -4.17,13.52 0.01,0.11 0.25,0.18 0.77,0.18l1.16 -0.1 1.72 20.93 -0.31 0.03 0 0.01c-10.18,0.79 -17.36,2.54 -21.82,5.08 -2.17,1.24 -3.39,2.5 -3.69,3.75 -0.41,1.64 0.12,4.07 1.49,7.13 3.19,7.13 10.19,15.78 20.37,25.52l-13.52 15.46z"/>
   <path class="fil11" d="M2270.29 4123.41c-10.18,-10.33 -12.99,-20.76 -11.3,-29.27 0.88,-4.37 2.91,-8.16 5.78,-11.18 2.7,-2.82 6.11,-4.95 9.94,-6.18 6.14,-2 13.58,-1.74 20.77,1.52 4.79,-6.67 10.47,-12.16 18.04,-12.11l0.01 0 0.03 0c10.08,0.1 19.25,10.74 25.12,43.54l-19.73 3.87c-3.57,-19.99 -5.06,-26.44 -5.51,-26.44l-0.04 0c-0.18,0 -3.37,5.86 -6.53,11.05l-6.3 10.39 -8.82 -8.13c-3.96,-3.64 -8.19,-4.58 -11.15,-3.63 -0.69,0.22 -1.25,0.54 -1.61,0.92 -0.17,0.18 -0.3,0.42 -0.35,0.66 -0.4,2.01 1.12,5.35 5.64,9.94l-13.99 15.05z"/>
   <path class="fil11" d="M2492.86 4074.94c-10.18,-10.33 -12.99,-20.76 -11.3,-29.26 0.88,-4.37 2.91,-8.17 5.79,-11.19 2.69,-2.82 6.1,-4.95 9.93,-6.18 6.14,-1.99 13.58,-1.74 20.77,1.52 4.79,-6.67 10.47,-12.15 18.04,-12.11l0.01 0 0.03 0c10.08,0.1 19.26,10.74 25.12,43.54l-19.73 3.87c-3.57,-19.99 -5.06,-26.44 -5.51,-26.44l-0.04 0c-0.18,0 -3.37,5.86 -6.52,11.06l-6.3 10.38 -8.83 -8.12c-3.96,-3.65 -8.19,-4.59 -11.15,-3.64 -0.69,0.22 -1.25,0.55 -1.6,0.92 -0.18,0.19 -0.31,0.42 -0.36,0.66 -0.4,2.01 1.12,5.35 5.64,9.94l-13.99 15.05z"/>
   <path class="fil9" d="M2038.79 5158.17c4.61,-14.03 15.64,-22.24 27.91,-24.55 5.76,-1.08 11.81,-0.84 17.55,0.73 5.83,1.59 11.4,4.56 16.1,8.88 7.54,6.94 12.87,17.19 13.52,30.66 7.64,0.12 14.57,2.08 20.75,5.38 8.79,4.69 15.91,12.09 21.33,20.68 5.19,8.25 8.81,17.62 10.8,26.67 3,13.61 2.37,27.13 -1.95,36.02l-17.92 -9.54c2.23,-4.58 2.28,-12.79 0.3,-21.79 -1.5,-6.82 -4.18,-13.81 -7.97,-19.84 -3.57,-5.67 -8.16,-10.5 -13.7,-13.45 -5.54,-2.96 -12.26,-4.03 -20.13,-2.14l-14.64 3.54 2.51 -15.5c1.94,-12.04 -1.06,-20.25 -6.1,-24.9 -2.31,-2.11 -5.05,-3.58 -7.92,-4.36 -2.97,-0.81 -6.08,-0.94 -8.99,-0.39 -5.51,1.03 -10.43,4.62 -12.43,10.73l-19.02 -6.83z"/>
   <path class="fil9" d="M1950.65 5060.9c3.12,-9.5 10.57,-15.05 18.84,-16.62 3.81,-0.71 7.81,-0.55 11.58,0.48 3.9,1.07 7.63,3.04 10.73,5.91l-0.02 0.02c4.2,3.86 7.36,9.21 8.52,16.01 3.35,0.51 6.48,1.59 9.37,3.12l0.04 0c5.56,2.97 10.05,7.63 13.44,13.01 3.17,5.03 5.38,10.73 6.58,16.2 1.87,8.52 1.4,17.17 -1.45,23.02l-17.91 -9.54c0.75,-1.55 0.65,-4.88 -0.21,-8.79 -0.71,-3.25 -1.97,-6.56 -3.75,-9.37 -1.55,-2.47 -3.51,-4.55 -5.81,-5.78l0 -0.02c-2.15,-1.14 -4.83,-1.52 -8.02,-0.76l-14.65 3.52 2.51 -15.48c0.77,-4.77 -0.19,-7.82 -1.88,-9.37l-0.04 0c-0.74,-0.68 -1.61,-1.15 -2.48,-1.39 -1.01,-0.27 -2.05,-0.32 -3.01,-0.14 -1.5,0.28 -2.84,1.23 -3.36,2.79l-19.02 -6.82z"/>
   <path class="fil9" d="M2029.82 5045.26c3.12,-9.49 10.57,-15.05 18.84,-16.61 3.81,-0.71 7.81,-0.56 11.58,0.48 3.9,1.06 7.63,3.04 10.73,5.9l-0.02 0.03c4.2,3.86 7.36,9.21 8.52,16 3.35,0.51 6.48,1.59 9.37,3.13l0.04 0c5.56,2.96 10.05,7.62 13.44,13.01 3.17,5.03 5.38,10.73 6.58,16.2 1.87,8.52 1.4,17.17 -1.45,23.02l-17.91 -9.54c0.75,-1.55 0.65,-4.88 -0.21,-8.79 -0.71,-3.25 -1.97,-6.57 -3.75,-9.38 -1.55,-2.46 -3.51,-4.54 -5.81,-5.77l0 -0.02c-2.15,-1.14 -4.83,-1.53 -8.02,-0.76l-14.65 3.52 2.51 -15.49c0.77,-4.77 -0.19,-7.82 -1.88,-9.37l-0.04 0c-0.74,-0.68 -1.61,-1.14 -2.48,-1.38 -1.01,-0.28 -2.05,-0.32 -3.01,-0.15 -1.5,0.29 -2.84,1.23 -3.36,2.8l-19.02 -6.83z"/>
   <path class="fil9" d="M2465.32 5176.45c-4.69,-6.71 -6.24,-12.99 -5.47,-18.4 0.7,-4.97 3.16,-8.92 6.94,-11.76 3,-2.26 6.77,-3.66 10.96,-4.13 4.64,-0.52 10.17,0.11 15.95,2.01 3.4,-8.91 11.68,-14.17 21.65,-16.74 5.65,-1.45 11.88,-1.89 17.81,-1.56 5.97,0.35 11.75,1.45 16.42,3.07l0 0.01c11.58,3.99 18.42,11.72 15.29,21.74l-19.09 -6.5c1.05,-3.37 -1.94,4.9 -2.44,4.73l-0.04 0c-3.15,-1.09 -7.09,-1.85 -11.17,-2.08 -4.12,-0.23 -8.34,0.05 -12,0.98 -5.04,1.3 -8.82,4.4 -7.46,10.19l6.34 26.93 -21.78 -15.79c-6.06,-4.39 -12.11,-6.33 -16.45,-6.17l0.72 1.06 -16.18 12.41z"/>
   <path class="fil12" d="M2137.31 3416.99c-8.1,-8.86 -21.98,-14.56 -24.29,-26.56 -5.64,-29.27 1.26,-59.73 1.9,-89.6 -23.7,-21.25 -19.51,-50.97 15.57,-50.07 25.17,-46.58 48.64,-70.04 69.86,-62.85 9.06,-12.63 11.81,-29.54 27.16,-37.91 -4.12,-47.12 -12.83,-91.36 -53.65,-115.64 -14.83,-19.29 -7.93,-46.34 20.73,-81.15 -29.63,-58.27 -36.43,-110.84 -24.27,-158.69 -19.56,-40.51 -51.06,-71.63 -94.52,-93.38l-2.28 -88.43c-20.51,-37.65 -24.59,-65.13 -23.44,-94.17 -10.45,-11.98 -23.86,-18.27 -40.25,-18.89l4.36 -24.05c-22.4,13.91 -41.73,16.81 -54.23,-4.31l60.52 -17.09c3.34,-9.41 -2.04,-16.52 -10.58,-22.83l-48.73 23.4c-13.32,-13 -13.86,-24.18 31.19,-28.9 5.16,-38.39 -3.28,-60.29 -41.62,-45.91l-48.41 12.61c-9.18,-6.55 -10.95,-14.13 -5.3,-22.76 36.71,-5.19 73.91,-19.79 111.74,-45.72l-71.25 14.83c-0.42,-14.44 2.49,-25.37 14.3,-25.84l25.06 -8.91c-13.16,-14.57 -13.66,-24.94 13.7,-26.06l27.81 -15.78 -1.06 -19.15 38.15 -3.55c6.53,-7.51 2.75,-12.89 -11.49,-10.55l-14.78 4.52c-10.32,-8.23 -9.37,-14.03 -0.73,-18.19l44.46 2.38c3.85,-6.04 -4.53,-19.84 11.55,-18.14 61.52,-15.14 120.62,-6.09 180.09,-0.73l1.83 9.81c26.58,4.82 27.47,12.23 2.66,22.22l67.34 14.63c24.72,4.69 6.17,19.9 9.23,29.08 13.3,-1.88 20.17,7.63 20.62,28.5 15.19,-1.19 19.99,6.93 14.42,24.35l55.89 21.85c33.01,3.08 11.91,21.66 17.88,32.5 18.33,3.87 21.83,15.51 10.53,34.91 6.88,13.6 4.95,25.37 -3,35.87l-48.45 -16.67 -2.19 11.19c2.84,3.32 5.77,5.8 5.73,8.24 -0.17,10.26 -7.75,15.93 -17.46,14.88 -17.31,-1.88 -45.36,-22.33 -60.03,-22.28 -12.49,3.05 -7.18,9.98 -10.76,14.96l45.29 19.84c-0.13,9.65 -11.91,18.88 -40.7,27.49 -29.19,-10.96 -54.06,-3.57 -63.46,69.37l-2.35 79.66c-23.77,-4.35 -43.58,-17.57 -56.62,-45.95 -26.2,24.46 -13.84,69.41 54.88,104.49l-0.26 8.97 4.71 283.5 -13.97 112.58 -17.01 337.07c-12.76,15.05 -14.77,30.5 -12.7,45.17 -6.03,41.9 -81.54,48.84 -85.59,-1.57l-3.73 -86.59z"/>
   <path class="fil13 str0" d="M2229.87 2578.01c30.1,25.87 47.1,52.47 55.25,79.51 -28.13,-2.61 -52.74,-8.82 -66.08,-34.28 -9.79,-16.57 -2.6,-31.5 10.83,-45.23z"/>
   <path class="fil7" d="M2032.63 3196.52c47.35,17.75 54.86,95.09 60.08,175.88l-89.63 -90.68c1.66,-15.26 -5.62,-26.76 -23.73,-33.73 -22.08,-33.48 24.96,-75.28 53.28,-51.47z"/>
   <path class="fil7" d="M1958.32 3096.16c6.29,-24.37 20.49,-32.72 42.59,-25.02 46.33,18.48 77.32,46.4 99.79,79.52 36.89,27.36 -4.77,70.94 -39.72,34.91l-23.12 -12.76c-34.81,-26.8 -92.54,-48.06 -79.54,-76.65z"/>
   <path class="fil14 str0" d="M2041.71 3150.8c10.65,-15.56 19.84,-20.98 37.37,-21.84 15.51,8.99 25.88,21.39 32.82,35.65 10.44,19.8 -9.56,40.91 -32.23,32.63l-14.13 -6.74c-11.26,-13.98 -26.47,-18.26 -23.83,-39.7z"/>
   <path class="fil7" d="M1962.12 2972.24c9.22,-16.86 19.82,-29.4 34.87,-31.35 8.34,-1.07 19.93,3.77 32.88,11.44 50.28,26.44 87.85,59.89 116.7,98.45 44.24,32.82 -5.72,85.08 -47.63,41.87l-27.72 -15.3c-46.89,-37.09 -121.08,-67.35 -109.1,-105.11z"/>
   <path class="fil14 str0" d="M2082.51 3052.89c9.27,-15.92 18.55,-21.1 35.91,-19.6 19.42,7.63 32.55,19.84 41.58,34.23 12.53,23.74 -11.46,49.05 -38.65,39.13l-16.93 -8.08c-11.05,-16.05 -28,-20.82 -21.91,-45.68z"/>
   <path class="fil7" d="M1950.39 2813.24c13.83,-35.27 36.62,-44.96 68.35,-29.05 53.91,44.96 97.7,91.35 135.15,138.94 56.64,57.67 -13.39,115.24 -59.55,48.31l-38.62 -27.57c-47.32,-47.06 -129.98,-90.35 -105.33,-130.63z"/>
   <path class="fil13 str0" d="M2076.59 2916.69c3.24,-4.08 4.4,-9.9 8.27,-11.63 12.53,-5.63 17.85,-9.47 30.18,-6.72 28.41,8.49 44.95,25.37 53.11,47.92 17.38,38.9 -13.16,70.93 -54.21,42.51 -22.52,-14.84 -50.84,-40.44 -37.35,-72.08z"/>
   <path class="fil7" d="M1992.32 2739.02c-12.38,-57.82 19.18,-54.65 47.33,-45.06 16.32,5.57 28.2,21.74 45.2,35.2 28.36,22.43 59.15,47.45 78.22,75.22 11.09,37.21 -12.6,80.64 -47.64,41.87l-27.72 -15.3c-24.69,-25.75 -64.4,-48.21 -85.51,-69.33 -7.67,-7.69 -12.46,-14.99 -9.88,-22.6z"/>
   <path class="fil13 str0" d="M2080.85 2802.22c4.81,-20.4 11.43,-27.87 23.68,-30.85 15.46,3.85 42.68,17.37 58.29,38.14 12.39,16.49 -15.25,65.85 -28.31,47.24l-13.6 -4.58c-17.75,-17.63 -38.22,-23.22 -40.06,-49.95z"/>
   <path class="fil0" d="M2064.32 2516.9l8.43 -5.04c2.08,12.34 8.15,24.71 18.31,37.2 -14.34,-6.38 -26.12,-15.33 -26.74,-32.16z"/>
   <path class="fil0" d="M2099.94 2509.83l10.63 -2.71c-0.31,13.38 3.26,27.88 10.91,43.75 -13.55,-10.95 -23.7,-23.45 -21.54,-41.04z"/>
   <path class="fil0" d="M2122.44 2504.47l13.22 -2.57c0.1,15.26 4.12,31.3 12,48.15 -14.22,-10.84 -25.57,-24.35 -25.22,-45.58z"/>
   <path class="fil0" d="M2231.13 2509.18l-12.46 -2.43c2.8,12.72 1.9,26.85 -2.61,42.55 11.51,-11.16 19.8,-23.8 15.07,-40.12z"/>
   <path class="fil0" d="M2265.6 2513.4l-12.29 -3.54c2.64,16.72 1.57,35.36 -3.16,55.97 11.65,-14.31 20.04,-31.01 15.45,-52.43z"/>
   <polygon class="fil0" points="2164.91,2498.84 2182.8,2496.51 2178.97,2532.85 2186.96,2543.72 2174.27,2707.98 2169,2534.06 2162.51,2532.74 "/>
   <path class="fil0" d="M2156.53 1783.42l10.33 45.7c-22.44,71.6 -24.12,137.55 -0.74,196.66l0.61 25.12c-37.27,-73.54 -40.67,-162.68 -10.2,-267.48z"/>
   <polygon class="fil15" points="2571.33,2778.84 2578.02,2721.89 3191.81,3839.27 3158.91,3854.29 "/>
   <polygon class="fil15" points="2584.48,2718.61 2628.6,2740.65 3224.22,3779.05 3206.9,3826.5 "/>
   <polygon class="fil15" points="2618.03,2637.58 2619.2,2601.95 3305.2,3569.6 3279.24,3599.78 "/>
   <polygon class="fil15" points="2624.17,2596.99 2656.32,2599.54 3321.93,3501.08 3312.01,3555.32 "/>
   <polygon class="fil15" points="2663.32,2567.68 2639.83,2506.06 3327.35,3304.74 3314.57,3358.36 "/>
   <polygon class="fil15" points="2650.82,2507.07 2692.19,2528.63 3336.35,3238.37 3324.31,3277.38 "/>
   <polygon class="fil15" points="2685.93,2455.54 2686.21,2423.28 3345.95,3075.81 3332.41,3117.91 "/>
   <polygon class="fil15" points="2699.82,2359.94 2672.47,2308.45 3297.97,2637.35 3303.2,2672.54 "/>
   <polygon class="fil15" points="2691.29,2416.58 2728.64,2420.56 3347.49,2990.31 3339.93,3024.72 "/>
   <polygon class="fil15" points="2999.6,2466.78 2978.7,2439.24 3304.69,2574.29 3298.72,2607.95 "/>
   <polygon class="fil15" points="2673.68,2303.8 2735.96,2294.61 3281.54,2515.85 3290.5,2555.66 "/>
   <polygon class="fil15" points="2725.03,2187.38 2677.26,2136.45 3245.76,2298.93 3255.09,2340.25 "/>
   <polygon class="fil15" points="2936.08,2203.22 2931.56,2190.16 3236.02,2248.28 3242.61,2289.34 "/>
   <polygon class="fil15" points="2678.06,2130.32 2725.12,2114.39 3220.14,2196.69 3232.36,2239.66 "/>
   <polygon class="fil15" points="2654.84,2016.64 2702.64,1990.71 3121.48,1913.82 3139.67,1942.2 "/>
   <polygon class="fil15" points="2719.1,2050.84 2656.09,2023.38 3159.8,2015.95 3162.79,2045.85 "/>
   <polygon class="fil15" points="2803.49,2009.31 2937.65,1987.58 3142.63,1965.19 3145.61,1994.32 "/>
   <polygon class="fil15" points="2622.01,1907.78 2649.58,1867.56 2978.47,1646.09 3007.12,1674.19 "/>
   <polygon class="fil15" points="2692.22,1921.63 2634.64,1920.62 3035.98,1730.68 3051.18,1768.78 "/>
   <polygon class="fil15" points="2681.76,1881.64 2783.27,1819.89 3013.84,1688.24 3029.77,1720.15 "/>
   <polygon class="fil15" points="2567.8,1780.25 2585.65,1716.96 2833.88,1429.35 2852.82,1449.76 "/>
   <polygon class="fil15" points="2631.29,1783.32 2580.42,1799.24 2887.66,1500.86 2909.59,1522.82 "/>
   <polygon class="fil15" points="2678.34,1694.12 2685.73,1664.66 2857.51,1466.92 2878.69,1485.83 "/>
   <polygon class="fil15" points="2503.11,1624.21 2506.78,1565.54 2674.34,1252.55 2693.28,1275.28 "/>
   <polygon class="fil15" points="2547.18,1638.82 2509.02,1650.9 2733.34,1311.76 2751.54,1332.18 "/>
   <polygon class="fil15" points="2570.33,1538.85 2603.87,1456.34 2705.71,1291 2726.89,1304.5 "/>
   <polygon class="fil15" points="2415.68,1461.7 2433.54,1369.19 2506.24,1153.09 2527.42,1162.74 "/>
   <polygon class="fil15" points="2486.63,1455.55 2438.02,1498.38 2584.11,1196.56 2599.73,1208.5 "/>
   <polygon class="fil15" points="2491.86,1357.12 2475.37,1362.27 2544.27,1176.16 2567.3,1183.14 "/>
   <polygon class="fil15" points="2304.39,1330.97 2294.62,1277.68 2323.94,1076.97 2346.96,1084.71 "/>
   <polygon class="fil15" points="2327.25,1280.19 2320.45,1271.17 2355.7,1085.71 2380.21,1091.17 "/>
   <polygon class="fil15" points="2348.16,1302.57 2319.86,1335.15 2384.79,1094.56 2412.22,1108.66 "/>
   <polygon class="fil15" points="1842.73,2774.2 1836.03,2717.26 1222.25,3834.64 1255.14,3849.66 "/>
   <polygon class="fil15" points="1829.58,2713.98 1785.46,2736.02 1189.83,3774.42 1207.16,3821.87 "/>
   <polygon class="fil15" points="1796.02,2632.94 1794.86,2597.32 1108.86,3564.97 1134.81,3595.15 "/>
   <polygon class="fil15" points="1789.89,2592.36 1757.74,2594.91 1092.12,3496.44 1102.04,3550.69 "/>
   <polygon class="fil15" points="1750.73,2563.05 1774.22,2501.43 1086.7,3300.11 1099.48,3353.73 "/>
   <polygon class="fil15" points="1763.23,2502.44 1721.87,2524 1077.71,3233.74 1089.74,3272.75 "/>
   <polygon class="fil15" points="1728.13,2450.91 1727.84,2418.64 1068.1,3071.18 1081.64,3113.28 "/>
   <polygon class="fil15" points="1714.23,2355.31 1741.58,2303.82 1116.09,2632.72 1110.85,2667.91 "/>
   <polygon class="fil15" points="1722.76,2411.95 1685.42,2415.93 1066.56,2985.68 1074.12,3020.09 "/>
   <polygon class="fil15" points="1414.45,2462.15 1435.35,2434.61 1109.36,2569.66 1115.33,2603.32 "/>
   <polygon class="fil15" points="1740.37,2299.17 1678.1,2289.97 1132.52,2511.22 1123.55,2551.02 "/>
   <polygon class="fil15" points="1689.03,2182.74 1736.79,2131.82 1168.3,2294.3 1158.97,2335.62 "/>
   <polygon class="fil15" points="1477.98,2198.6 1482.49,2185.53 1178.04,2243.65 1171.45,2284.71 "/>
   <polygon class="fil15" points="1735.99,2125.69 1688.93,2109.76 1193.91,2192.06 1181.7,2235.03 "/>
   <polygon class="fil15" points="1759.21,2012 1711.41,1986.08 1292.58,1909.19 1274.38,1937.57 "/>
   <polygon class="fil15" points="1694.96,2046.21 1757.96,2018.75 1254.25,2011.31 1251.26,2041.22 "/>
   <polygon class="fil15" points="1610.56,2004.68 1476.4,1982.95 1271.43,1960.56 1268.44,1989.69 "/>
   <polygon class="fil15" points="1792.04,1903.15 1764.48,1862.93 1435.59,1641.45 1406.94,1669.56 "/>
   <polygon class="fil15" points="1721.84,1917 1779.42,1915.99 1378.08,1726.04 1362.88,1764.15 "/>
   <polygon class="fil15" points="1732.29,1877.01 1630.79,1815.25 1400.21,1683.61 1384.28,1715.52 "/>
   <polygon class="fil15" points="1846.26,1775.62 1828.4,1712.32 1580.17,1424.71 1561.23,1445.13 "/>
   <polygon class="fil15" points="1782.77,1778.69 1833.63,1794.61 1526.39,1496.23 1504.47,1518.19 "/>
   <polygon class="fil15" points="1735.72,1689.49 1728.32,1660.03 1556.54,1462.29 1535.36,1481.2 "/>
   <polygon class="fil15" points="1910.94,1619.58 1907.27,1560.91 1739.72,1247.92 1720.77,1270.64 "/>
   <polygon class="fil15" points="1866.88,1634.19 1905.03,1646.27 1680.71,1307.13 1662.51,1327.55 "/>
   <polygon class="fil15" points="1843.72,1534.22 1810.18,1451.71 1708.35,1286.37 1687.17,1299.86 "/>
   <polygon class="fil15" points="1998.38,1457.07 1980.52,1364.56 1907.81,1148.46 1886.63,1158.11 "/>
   <polygon class="fil15" points="1927.42,1450.91 1976.04,1493.75 1829.94,1191.93 1814.32,1203.87 "/>
   <polygon class="fil15" points="1922.2,1352.49 1938.69,1357.64 1869.79,1171.53 1846.76,1178.51 "/>
   <polygon class="fil15" points="2109.67,1326.34 2119.44,1273.05 2090.12,1072.34 2067.09,1080.08 "/>
   <polygon class="fil15" points="2086.8,1275.56 2093.6,1266.54 2058.36,1081.08 2033.85,1086.54 "/>
   <polygon class="fil15" points="2065.9,1297.94 2094.19,1330.52 2029.27,1089.93 2001.83,1104.03 "/>
   <path class="fil16" d="M1982.37 2032.87l20.6 6.51c15.09,-37.14 30.18,-28.03 57.22,-4.71l25.3 50.92 12.27 12.15c-23.53,-113.42 -35.28,-208.13 -4.97,-235.98 40.13,-52.14 31.55,77.46 31.19,176.38l19.48 41.09 69.65 -18.49c-14.67,-93.28 -15.02,-183.29 28.1,-203.6 -9.64,51.37 -9.87,127.81 6.42,168.73 4.22,-163.21 4,-353.13 55.3,-272.05 11.5,79.02 12.54,173.67 -5.82,252.68 48.41,-53.71 68.06,-75.75 56.74,-16.9 29.72,6.66 19.72,72.63 19.41,136.82 29.76,-26.29 88.66,-254.27 80.33,-93.72 -4.11,7.07 -1.09,18.47 -3.3,26.2 -15.54,54.13 -4.33,104.36 -86.79,145.46 -114.24,-21.64 -241.74,-35.03 -382.62,-6.89 -46.17,-58.79 -53.93,-116.26 1.49,-164.6z"/>
   <path class="fil0" d="M2018.65 2265.42c117.57,-25.33 211.06,-29.98 329.03,14.88l-9.71 11.72c-90.81,-33.05 -191.45,-39.98 -305.97,-14.06l-13.35 -12.54z"/>
   <path class="fil0" d="M2018.5 2401.85c114.6,-36.97 282.65,-16.65 383.41,28.1l-8.67 11.38c-90.82,-33.04 -270.99,-47.01 -385.52,-21.09l10.78 -18.39z"/>
   <path class="fil0" d="M2172.65 3305.6c-0.35,-23.77 -4.78,-58.01 -1.06,-71.3 2.94,-29.2 9.95,-44.89 18.25,-40.48 22.51,10.97 20.39,32.16 18.76,42.73 -0.29,1.88 -0.44,46.3 -2.03,45.57 -0.07,-0.03 -0.1,12.02 -0.5,12.3 -0.44,0.29 -2.35,55.72 -3.81,57.02 -0.15,0.14 4.14,19.42 3.61,19.18 -0.15,-0.06 4.86,5.34 6.16,14.71 2.48,17.87 -0.72,47.23 -1.41,47.96 -0.5,0.51 -4.59,-0.43 -5.44,-10.64 -0.55,-6.54 2.58,-20.97 1.08,-27.93 -2.8,-12.95 -11.65,-25.44 -11.56,-27.77 0.3,-7.39 1.98,-23.28 1.82,-27.28 -0.61,-14.84 2.99,-40.6 2.67,-41.81 -0.68,-2.53 2.03,-16.13 1.86,-18.21 -1.12,-13.72 1.64,-43.87 1.9,-43.16 -1.8,-14.7 -4.84,-28.05 -16.41,-32.01 -3.82,8.56 -4.55,19.9 -5.94,32 -4.37,16.29 -3.33,35.81 -0.8,56.22 -2.22,66.21 -0.69,134.37 9.05,206.83l-17.62 -8.6c0.35,-75.46 -4.9,-140.1 1.42,-185.33z"/>
   <polygon class="fil0" points="2300.16,3757.55 2312.91,3734.88 2318.89,3804.6 2300.16,3795.22 "/>
   <polygon class="fil0" points="2305.39,3862.3 2318.14,3839.63 2330.09,3952.34 2305.39,3899.97 "/>
   <polygon class="fil0" points="1352.64,4549.55 1902.37,4563.12 1904.97,4579.63 1343,4569.16 "/>
   <polygon class="fil0" points="1860.96,4543.27 2555.58,4561.54 2599.25,4578.05 1851.32,4562.88 "/>
   <polygon class="fil0" points="2622.26,4554.21 3003.66,4560.75 3021.99,4578.83 2617.06,4573.83 "/>
   <polygon class="fil0" points="2656.62,4600.34 3038.02,4606.88 3056.35,4624.95 2651.42,4619.95 "/>
   <polygon class="fil0" points="2594.12,4660.36 2794.84,4661.19 2809.45,4681.33 2592.07,4680.04 "/>
   <polygon class="fil0" points="2666.87,4304.72 2788.61,4305.56 2794.84,4323.35 2665.63,4324.41 "/>
   <polygon class="fil0" points="2874.1,4296.88 3034.07,4297.71 3042.25,4315.5 2872.47,4316.56 "/>
   <polygon class="fil0" points="2979.07,4320.42 3139.03,4321.25 3147.22,4339.04 2977.44,4340.1 "/>
   <polygon class="fil0" points="2857.29,4378.49 3133.11,4379.32 3147.22,4397.11 2854.48,4398.17 "/>
   <path class="fil3" d="M929.47 4611.38l-12.8 -30.1 -4.07 -9.6 9.14 -4.27 125.44 -58.45c11.4,-5.31 21.91,-9.4 31.49,-12.25l0.04 0c9.9,-2.95 19.01,-4.65 27.3,-5.09l0.04 0c8.64,-0.46 17.11,0.6 25.37,3.16 8.23,2.55 16.2,6.57 23.9,12.02l-0.01 0.01c7.84,5.52 14.97,12.69 21.39,21.48 6.23,8.53 11.83,18.66 16.81,30.37 4.84,11.36 8.31,22.17 10.41,32.39 2.14,10.51 2.87,20.46 2.15,29.82l0 0c-0.69,9.54 -2.79,18.47 -6.26,26.76 -3.49,8.32 -8.34,15.93 -14.54,22.78 -5.98,6.63 -13.54,13 -22.67,19.13 -8.84,5.93 -19.25,11.69 -31.24,17.27l-125.44 58.45 -9.16 4.28 -4.08 -9.59 -12.78 -30.04 -4.08 -9.59 9.15 -4.27 125.28 -58.39c9.1,-4.23 16.72,-8.3 22.83,-12.17 5.82,-3.69 10.31,-7.21 13.41,-10.51l0.04 -0.04c2.83,-2.99 5.05,-6.32 6.66,-9.96 1.66,-3.72 2.69,-7.8 3.11,-12.18l0 0c0.42,-4.55 0.17,-9.37 -0.76,-14.44 -0.97,-5.27 -2.68,-10.77 -5.09,-16.44 -4.27,-10.02 -8.95,-18.05 -14.03,-24.02 -4.61,-5.42 -9.48,-9.08 -14.59,-10.92 -5.12,-1.85 -11.94,-1.98 -20.45,-0.36 -9.35,1.78 -20.49,5.67 -33.37,11.68l-125.29 58.38 -9.17 4.28 -4.08 -9.58zm199.27 -176.17l-223.26 85.06 -9.41 3.59 -3.44 -9.88 -11.03 -31.73 -1.83 -5.25 3.17 -4.53 113.09 -161.63 -144.27 54.96 -9.41 3.58 -3.44 -9.88 -10.31 -29.65 -3.42 -9.85 9.44 -3.59 223.27 -85.06 9.41 -3.58 3.43 9.88 11.03 31.71 1.83 5.26 -3.17 4.53 -113.21 161.68 144.4 -55.01 9.41 -3.58 3.43 9.87 10.31 29.66 3.43 9.85 -9.45 3.59zm-82.82 -242.29l-228.39 68.54 -9.64 2.9 -2.78 -10.13 -8.66 -31.61 -2.75 -10.09 9.67 -2.91 228.39 -68.54 9.64 -2.89 2.78 10.13 8.66 31.61 2.76 10.09 -9.68 2.9zm-36.89 -155.95l-210.81 149.83 -12.1 8.6 -3.3 -14.93 -7.66 -34.76 -1.59 -7.18 5.95 -4 154.29 -103.6c2.6,-1.75 5.28,-3.53 8.02,-5.31 -3.19,-0.38 -6.39,-0.79 -9.58,-1.23l0 -0.01 -182.57 -24.8 -6.96 -0.94 -1.57 -7.11 -7.22 -32.73 -3.3 -14.99 14.54 2.25 252.44 38.94 6.79 1.05 1.54 7.01 3.59 16.26 1.02 0.05 -0.9 0.51 3.54 16.07 1.54 6.97 -5.7 4.05zm-38.2 -155.86l-234 43.18 -9.87 1.83 -1.75 -10.38 -29.83 -177.05 -1.74 -10.34 9.91 -1.83 27.63 -5.1 9.88 -1.82 1.74 10.37 22.62 134.29 51.86 -9.57 -21.09 -125.14 -1.74 -10.33 9.91 -1.84 27.46 -5.06 9.88 -1.82 1.75 10.37 21.07 125.11 59.86 -11.05 -23.59 -140.03 -1.74 -10.33 9.91 -1.83 27.62 -5.11 9.88 -1.82 1.75 10.38 30.79 182.75 1.74 10.34 -9.91 1.83zm-36.38 -229.3l-236.3 25.99 -9.94 1.1 -1.06 -10.47 -11.01 -109.64c-1.14,-11.4 -1.59,-21.61 -1.36,-30.59 0.25,-9.43 1.24,-17.5 2.97,-24.17l0 -0.04c1.83,-7.07 4.72,-13.61 8.65,-19.59l0.04 -0.04c3.87,-5.89 8.74,-11.21 14.57,-15.91l0.04 -0.04c5.8,-4.62 12.03,-8.29 18.66,-11.01 6.58,-2.68 13.6,-4.45 21.02,-5.26 9.63,-1.06 18.71,-0.4 27.21,1.98 8.6,2.42 16.6,6.58 23.98,12.49 7.39,5.9 13.7,13.68 18.92,23.3 1.38,2.54 2.69,5.22 3.92,8.03l0.01 -0.01 0.03 -0.04c3.98,-5.63 8.54,-11.18 13.65,-16.62 5.02,-5.36 10.62,-10.66 16.77,-15.91l0.07 -0.08 60 -50.09 14.31 -11.94 1.91 19.09 4.14 41.18 0.58 5.72 -4.3 3.57 -45.91 38.12 0 -0.01c-6.48,5.46 -12.21,10.43 -17.12,14.87 -4.89,4.41 -8.98,8.3 -12.23,11.64l-0.08 0.08c-3.17,3.21 -5.8,6.16 -7.87,8.83l0 0.01c-1.85,2.41 -3.26,4.62 -4.21,6.61l-0.04 0.03c-1.05,2.17 -1.9,4.28 -2.52,6.3 -0.61,1.99 -1.06,4.01 -1.33,6.03 -0.08,1.4 -0.09,3.31 0,5.68 0.11,2.75 0.37,6.15 0.77,10.18l2.76 27.48 94.97 -10.45 9.95 -1.09 1.05 10.47 3.28 32.71 1.05 10.41 -10 1.1zm-147.31 -37.98l-6.03 -59.95c-0.7,-7.03 -1.67,-13.21 -2.88,-18.47l0 0c-1.15,-4.97 -2.53,-9.16 -4.11,-12.53l0 -0.04c-1.43,-3.05 -3.16,-5.69 -5.17,-7.88 -1.9,-2.07 -4.06,-3.75 -6.48,-5.03 -2.61,-1.38 -5.27,-2.34 -7.94,-2.85 -2.69,-0.52 -5.48,-0.62 -8.36,-0.31 -4.14,0.45 -7.81,1.63 -10.98,3.53 -3.13,1.88 -5.86,4.5 -8.16,7.87l-0.04 0.04c-2.25,3.29 -3.82,7.6 -4.68,12.9 -0.97,5.99 -1.04,13.12 -0.21,21.35l6.8 67.79 58.24 -6.42zm39.54 -205.41l-4.15 -30.85 -1.35 -10.08 9.64 -1.71c5.18,-0.92 9.86,-2.25 14.02,-3.96 3.96,-1.63 7.41,-3.62 10.33,-5.91 2.79,-2.19 5.32,-5.02 7.57,-8.42 2.41,-3.63 4.49,-7.92 6.25,-12.85 1.79,-4.99 3.07,-10.35 3.82,-16.02 0.76,-5.76 0.98,-11.87 0.66,-18.27 -0.28,-5.72 -0.95,-11.03 -1.98,-15.9 -1,-4.73 -2.38,-9.15 -4.11,-13.22l-0.02 0.01c-1.68,-3.91 -3.58,-7.26 -5.67,-10.01 -1.97,-2.59 -4.07,-4.65 -6.28,-6.15l-0.02 0.02c-2.39,-1.59 -4.82,-2.76 -7.27,-3.47l0 -0.01c-2.38,-0.67 -4.87,-0.95 -7.49,-0.81 -2.6,0.14 -5.02,0.68 -7.22,1.58 -2.11,0.87 -4.08,2.14 -5.88,3.77l-0.04 0.04c-1.8,1.63 -3.5,3.86 -5.07,6.68 -1.79,3.23 -3.38,7.12 -4.77,11.64l0 0.04c-0.94,3.02 -2.19,8.15 -3.7,15.4 -1.63,7.82 -3.43,17.2 -5.36,28.11 -2.12,11.87 -4.23,21.98 -6.34,30.28 -2.19,8.64 -4.47,15.64 -6.82,20.93l0 0c-2.97,6.83 -6.46,12.88 -10.39,18.14 -4.08,5.46 -8.66,10.07 -13.68,13.81l-0.04 0.04c-5.03,3.71 -10.44,6.6 -16.2,8.64l-0.03 0c-5.71,2.01 -11.77,3.2 -18.15,3.55 -6.96,0.38 -13.78,-0.29 -20.42,-2 -6.6,-1.7 -13.02,-4.44 -19.18,-8.2 -6.32,-3.81 -11.95,-8.67 -16.9,-14.51 -4.88,-5.78 -9.05,-12.42 -12.47,-19.92l0 -0.04c-3.28,-7.28 -5.89,-15.09 -7.8,-23.37 -1.87,-8.18 -3.04,-16.75 -3.49,-25.69 -0.49,-9.79 -0.19,-19.12 0.9,-27.97 1.1,-8.97 3.03,-17.41 5.75,-25.32 2.79,-8.11 6.41,-15.39 10.84,-21.8 4.52,-6.55 9.87,-12.21 16.01,-16.94l0.03 0c6.13,-4.68 12.69,-8.39 19.66,-11.08 6.86,-2.66 14.24,-4.38 22.13,-5.14l9.61 -0.93 1.23 10.06 3.84 31.39 1.23 10.03 -9.55 1.64c-6.29,1.07 -11.73,2.93 -16.28,5.55 -4.22,2.43 -7.69,5.57 -10.36,9.38 -2.77,3.94 -4.78,8.83 -6.02,14.67 -1.35,6.36 -1.8,13.85 -1.37,22.48 0.45,9.07 1.61,16.77 3.46,23.08 1.67,5.7 3.9,10.17 6.64,13.41l-0.01 0.01c2.73,3.19 5.64,5.52 8.67,6.96 2.84,1.35 5.91,1.94 9.14,1.77 2.89,-0.16 5.43,-0.82 7.59,-1.95 2.09,-1.1 3.99,-2.77 5.68,-4.96l0.04 -0.08c1.75,-2.25 3.66,-6.92 5.67,-13.97 2.28,-8.01 4.5,-18.56 6.63,-31.62 2.25,-13.68 4.43,-25.3 6.54,-34.81 2.18,-9.83 4.3,-17.52 6.38,-23.07l0.04 -0.08c3.11,-8.11 6.82,-15.31 11.07,-21.6l0 -0.05c4.37,-6.44 9.3,-11.85 14.79,-16.19l0.04 0c5.55,-4.36 11.58,-7.73 18.07,-10.1 6.45,-2.36 13.34,-3.74 20.66,-4.14 7.31,-0.4 14.46,0.3 21.45,2.11 6.92,1.78 13.69,4.68 20.31,8.66 6.69,4.04 12.67,9.04 17.93,14.96 5.22,5.86 9.77,12.68 13.66,20.42l0 0.04c3.8,7.6 6.77,15.76 8.91,24.42l0.01 0c2.12,8.58 3.42,17.67 3.9,27.2 0.59,11.91 0.33,22.89 -0.82,32.91 -1.18,10.23 -3.28,19.66 -6.35,28.25l0.03 0c-3.07,8.69 -7.1,16.57 -12.1,23.63 -5,7.07 -10.95,13.26 -17.84,18.56 -6.83,5.25 -14.22,9.4 -22.13,12.4 -7.88,2.98 -16.24,4.85 -25.03,5.55l-9.37 0.75 -1.31 -9.8zm76.78 -241.22l-237.46 -8.68 -10.05 -0.36 0.35 -10.45 1.09 -32.87 0.35 -10.52 9.98 0.36 237.46 8.69 10.06 0.37 -0.36 10.44 -1.09 32.86 -0.35 10.53 -9.98 -0.37zm2.66 -91.63l-237.28 -13.02 -10.02 -0.54 0.52 -10.48 4.28 -85.52c0.49,-9.88 1.23,-18.65 2.22,-26.29l0 0c1,-7.83 2.28,-14.53 3.79,-20.05l-0.01 -0.01c2.1,-7.76 4.92,-14.98 8.43,-21.62 3.56,-6.72 7.81,-12.81 12.71,-18.23 6.2,-6.88 13.2,-12.86 20.98,-17.89 7.77,-5.03 16.22,-9.07 25.32,-12.09l0 0.03c9.06,-3.04 18.65,-5.15 28.73,-6.33 9.98,-1.17 20.55,-1.45 31.7,-0.83 9.43,0.5 18.33,1.58 26.69,3.21 8.49,1.65 16.43,3.88 23.78,6.68l-0.01 0.01c7.27,2.74 13.96,5.8 20.02,9.17 6.18,3.45 11.72,7.23 16.58,11.35l0 0c4.75,3.99 9.05,8.22 12.84,12.64l0.02 -0.02c3.77,4.4 7.06,9.08 9.82,13.96l0 -0.01c2.75,4.79 5.11,10.04 7.06,15.68 1.94,5.61 3.5,11.63 4.66,18.04 1.13,6.3 1.89,13.07 2.25,20.25 0.35,7.04 0.33,14.5 -0.07,22.34l-4.48 89.62 -0.53 10.5 -10 -0.55zm-35.35 -55.9l2.13 -42.53c0.39,-7.75 0.4,-14.71 0.02,-20.83 -0.36,-5.66 -1.08,-10.57 -2.14,-14.68 -1.08,-4.17 -2.37,-7.78 -3.85,-10.82 -1.43,-2.93 -3.14,-5.55 -5.11,-7.84l0 -0.04c-2.88,-3.37 -6.41,-6.48 -10.52,-9.29 -4.3,-2.93 -9.22,-5.53 -14.72,-7.77 -5.58,-2.27 -11.88,-4.11 -18.85,-5.5 -7.15,-1.43 -14.98,-2.39 -23.46,-2.85 -11.72,-0.63 -22.04,-0.21 -30.95,1.27 -8.49,1.41 -15.7,3.8 -21.6,7.14 -5.99,3.38 -11.01,7.22 -15.07,11.46l-0.04 0c-3.81,3.99 -6.75,8.41 -8.83,13.25 -1.5,3.5 -2.78,8.34 -3.79,14.48 -1.1,6.71 -1.89,14.71 -2.35,23.97l-2.09 41.73 161.22 8.85zm40.41 -168.15l-224.7 -125.12 -6.1 -3.4 0.84 -7.17 1.58 -13.45 -7.57 -2.61 8.02 -1.3 2.1 -17.81 0.82 -6.97 6.52 -1.87 247.68 -70.73 14.44 -4.11 -1.83 15.5 -4.37 37.24 -0.83 7.17 -6.71 1.75 -68.11 17.86 -10.41 88.76 61.94 32.89 6.32 3.36 -0.86 7.29 -4.07 34.71 -1.79 15.2 -12.91 -7.19zm-92 -109.24l6.29 -53.64 -54.2 13.82c-6.31,1.6 -12.25,3.06 -17.78,4.37 4.15,2 8.34,4.14 12.55,6.41l0.04 0.04 53.1 29zm125.34 -149.31l-233.23 -47.45 -9.89 -2.01 1.91 -10.29 15.61 -84.07c1.8,-9.69 3.7,-18.28 5.69,-25.71l0.01 0c2.04,-7.65 4.2,-14.1 6.43,-19.34l-0.01 0c3.12,-7.41 6.87,-14.15 11.22,-20.18 4.39,-6.1 9.42,-11.52 15.04,-16.22 7.08,-5.92 14.79,-10.83 23.11,-14.65 8.24,-3.8 17.15,-6.56 26.68,-8.25l0 0c9.26,-1.67 19.03,-2.35 29.29,-2.05 10.17,0.29 20.67,1.55 31.5,3.75 9.22,1.88 17.92,4.25 26.04,7.1 8.26,2.9 15.82,6.25 22.66,10.06l-0.01 0.01c6.75,3.72 12.96,7.72 18.57,12l0.02 -0.03c5.66,4.31 10.65,8.88 14.95,13.72 4.18,4.66 7.87,9.46 11.02,14.38 3.23,5.02 5.87,10.11 7.91,15.26l-0.02 0.01c2.09,5.17 3.72,10.69 4.9,16.53 1.15,5.76 1.88,11.95 2.19,18.49l0 0.04c0.29,6.57 0.14,13.36 -0.44,20.34 -0.58,6.95 -1.59,14.34 -3.04,22.11l-16.36 88.1 -1.92 10.36 -9.83 -2.01zm-27.59 -60.54l7.76 -41.76c1.43,-7.67 2.36,-14.55 2.78,-20.59 0.41,-5.86 0.38,-10.85 -0.11,-14.91 -0.49,-4.15 -1.31,-7.91 -2.42,-11.28 -1.02,-3.09 -2.36,-5.93 -4.02,-8.5l0 -0.04c-2.42,-3.79 -5.49,-7.39 -9.18,-10.76 -3.79,-3.46 -8.33,-6.74 -13.56,-9.81 -5.26,-3.08 -11.23,-5.83 -17.92,-8.2 -6.85,-2.44 -14.46,-4.52 -22.82,-6.22 -11.58,-2.35 -21.87,-3.44 -30.85,-3.27 -8.61,0.16 -16.06,1.47 -22.31,3.9 -6.37,2.49 -11.87,5.55 -16.46,9.17l-0.04 0c-4.33,3.41 -7.84,7.36 -10.52,11.81 -1.96,3.25 -3.86,7.88 -5.68,13.83 -1.93,6.3 -3.76,14.11 -5.48,23.36l-7.62 41.04 158.45 32.23zm92.14 -279.2l-227.22 -72.72 -9.6 -3.06 2.92 -10.01 9.43 -32.28 1.59 -5.4 5.13 -1.63 183.23 -57.85 -146.78 -46.96 -9.6 -3.07 2.92 -10.01 8.81 -30.18 2.94 -10.04 9.56 3.06 227.21 72.7 9.61 3.08 -2.93 10 -9.43 32.28 -1.58 5.41 -5.14 1.62 -183.36 57.81 146.92 47.01 9.6 3.07 -2.93 10 -8.81 30.18 -2.93 10.05 -9.56 -3.06zm59.17 -216.01l-192.06 -174.83 -5.19 -4.72 2.37 -6.79 4.43 -12.75 -6.86 -4.36 8.16 0.63 5.84 -16.82 2.31 -6.63 6.73 -0.28 256.54 -10.6 14.93 -0.61 -5.11 14.67 -12.26 35.26 -2.36 6.78 -6.91 0.13 -70.19 1.36 -29.22 84.03 53.32 46.67 5.39 4.72 -2.41 6.91 -11.42 32.87 -5.01 14.4 -11.02 -10.04zm-66.14 -128.1l17.66 -50.79 -55.79 0.7 -0.04 0c-6.46,0.08 -12.55,0.1 -18.29,0.07 3.72,3 7.35,6.07 10.9,9.21l0.04 0.04 45.52 40.77zm158.38 -324.18l21.38 -25.57 6.65 -7.93 7.54 6.95c10.69,9.84 19.35,20.33 25.96,31.43 6.71,11.26 11.28,23.14 13.71,35.61l0.04 0.04c2.37,12.37 2.59,24.9 0.64,37.58 -1.91,12.53 -5.92,25.03 -11.99,37.5 -6.19,12.73 -13.08,23.65 -20.65,32.76l-0.02 -0.02c-7.78,9.36 -16.29,16.84 -25.51,22.42l-0.04 0c-9.26,5.57 -19.15,9.53 -29.62,11.85l-0.04 0c-10.41,2.29 -21.43,3.02 -33.03,2.16 -11.43,-0.86 -22.71,-2.94 -33.78,-6.23l0.01 -0.01c-11.08,-3.3 -21.95,-7.78 -32.56,-13.44 -11.65,-6.22 -22.05,-13.23 -31.14,-21.03l0 -0.04c-9.2,-7.89 -17.11,-16.62 -23.67,-26.14 -6.62,-9.59 -11.7,-19.7 -15.2,-30.29 -3.52,-10.61 -5.44,-21.66 -5.77,-33.16 -0.33,-11.32 0.71,-22.45 3.13,-33.36 2.42,-10.96 6.2,-21.7 11.31,-32.21 5.84,-11.98 12.72,-22.31 20.67,-30.97 8.03,-8.76 17.12,-15.76 27.24,-20.98 10.13,-5.22 20.85,-8.52 32.12,-9.88 11.14,-1.34 22.84,-0.78 35.07,1.66l10.36 2.08 -2.51 10.71 -7.53 32.31 -2.2 9.46 -9.15 -1.57c-8.13,-1.38 -15.48,-1.76 -22.02,-1.11 -6.15,0.61 -11.66,2.16 -16.53,4.65l-0.04 0c-4.8,2.44 -9.16,5.81 -13.06,10.09 -4.05,4.44 -7.67,9.95 -10.85,16.49 -3.73,7.64 -6.25,15.05 -7.57,22.18l0 0.04c-1.3,6.96 -1.48,13.74 -0.55,20.34l0.01 0c0.97,6.74 2.86,13.01 5.63,18.77 2.81,5.84 6.58,11.28 11.3,16.3l0.04 0.03c5.03,5.4 10.44,10.32 16.18,14.74 5.71,4.38 11.86,8.34 18.41,11.83 8.52,4.55 16.78,8.15 24.78,10.79 7.93,2.62 15.54,4.33 22.81,5.09l0 0.01c6.98,0.7 13.54,0.38 19.66,-1 5.94,-1.33 11.5,-3.68 16.66,-7.06l0.01 0.03c5.37,-3.51 10.11,-7.62 14.2,-12.31 4.02,-4.6 7.5,-9.92 10.42,-15.91 3.5,-7.19 5.73,-14.28 6.69,-21.25 0.95,-6.91 0.68,-13.78 -0.77,-20.6l-0.01 0c-1.46,-6.79 -4.28,-13.36 -8.42,-19.71 -4.31,-6.62 -10.05,-12.98 -17.18,-19.07l-8.05 -6.87 6.83 -8.18zm111.54 -15.75l-199.27 -135.44 -8.4 -5.72 5.45 -8.8 17.11 -27.58 5.46 -8.81 8.41 5.72 199.27 135.45 8.41 5.72 -5.46 8.8 -17.11 27.58 -5.45 8.81 -8.42 -5.73zm-56.47 -147.99c-16.43,-13.44 -29.41,-27.8 -38.91,-43.08 -9.71,-15.59 -15.81,-32.11 -18.29,-49.53 -2.47,-17.37 -1.5,-34.23 2.91,-50.55 4.37,-16.17 12.13,-31.74 23.27,-46.66 7.32,-9.79 15.38,-18.2 24.19,-25.18 8.85,-7.02 18.53,-12.68 28.98,-16.94 10.52,-4.25 21.21,-6.85 32.04,-7.75 10.79,-0.89 21.8,-0.13 32.98,2.31l0 0c11.02,2.39 21.8,6.26 32.28,11.55 10.42,5.26 20.63,11.98 30.59,20.13 10.16,8.31 18.98,17.22 26.41,26.71 7.5,9.59 13.69,19.87 18.54,30.82 4.89,11.06 8.14,22.27 9.71,33.62 1.57,11.32 1.46,22.78 -0.33,34.36l0 0.04c-1.78,11.42 -4.85,22.29 -9.16,32.57 -4.31,10.24 -9.91,19.98 -16.81,29.23 -7.43,9.96 -15.66,18.48 -24.64,25.54 -9.12,7.16 -18.94,12.8 -29.45,16.88l-0.02 -0.04c-10.61,4.16 -21.35,6.66 -32.18,7.48 -10.87,0.81 -21.84,-0.02 -32.91,-2.51 -10.83,-2.41 -21.22,-6.07 -31.14,-10.92 -9.88,-4.84 -19.25,-10.88 -28.06,-18.08zm32.69 -42.95c10.4,8.5 20.72,14.62 30.93,18.34 9.85,3.58 19.7,4.91 29.55,4.01l0.01 0.04c9.77,-0.91 18.67,-3.69 26.68,-8.31 8.01,-4.63 15.18,-11.16 21.46,-19.58 6.42,-8.61 10.84,-17.6 13.2,-26.93 2.35,-9.27 2.72,-18.99 1.1,-29.16 -1.62,-10.13 -5.51,-19.99 -11.66,-29.52 -6.38,-9.88 -15.16,-19.4 -26.32,-28.53 -6.99,-5.73 -14.09,-10.5 -21.24,-14.31 -7.04,-3.75 -14.02,-6.51 -20.9,-8.26 -6.77,-1.71 -13.37,-2.42 -19.78,-2.14 -6.3,0.29 -12.52,1.58 -18.62,3.86l-0.01 -0.01c-6.05,2.3 -11.65,5.42 -16.77,9.35 -5.18,3.98 -9.89,8.82 -14.12,14.49 -6.08,8.13 -10.38,16.73 -12.9,25.79 -2.52,9.05 -3.29,18.71 -2.32,28.93l0 0.04c0.9,9.7 4.67,19.58 11.28,29.62 7.01,10.66 17.17,21.43 30.43,32.28zm217.72 -107.48l-165.06 -178.89 -6.95 -7.54 7.23 -7.31 23.2 -23.45 3.86 -3.9 5.22 1.18 187.05 42.39 -106.63 -115.57 -6.95 -7.53 7.23 -7.31 21.68 -21.92 7.21 -7.28 6.98 7.57 165.05 178.89 6.96 7.54 -7.23 7.3 -23.2 23.45 -3.86 3.9 -5.22 -1.18 -187.15 -42.49 106.72 115.67 6.96 7.54 -7.23 7.31 -21.69 21.92 -7.2 7.28 -6.98 -7.57zm148.89 -166.75l-61.52 -258.51 -1.66 -6.94 5.67 -4.16 10.57 -7.75 -3.21 -7.65 6.31 5.38 14.06 -10.3 5.52 -4.04 5.64 3.79 215.95 145.33 9.91 6.67 -2.41 -5.93 -92.84 -228.92 -3.91 -9.65 9.26 -4.12 28.97 -12.87 9.21 -4.08 3.9 9.63 77.97 192.24 98.46 -43.74 9.25 -4.11 3.91 9.66 10.96 27.02 3.92 9.68 -9.23 4.09 -136.67 60.72 -9.24 4.11 -0.34 -0.85 -10.77 7.88 -29.36 21.52 -5.63 4.13 -5.68 -4 -58.31 -41.07 -69.97 51.28 18.12 70.28 1.83 7.07 -5.8 4.24 -27.36 20.06 -11.95 8.76 -3.53 -14.85zm16 -144.58l42.31 -31 -46.1 -32.93c-5.18,-3.71 -10.2,-7.37 -15.03,-10.96 1.39,4.66 2.68,9.36 3.87,14.09l0 0.08 14.95 60.72zm439.18 -94.75l-4.15 -248.66 -0.17 -10.46 10.03 -0.19 81.81 -1.49c9.62,-0.18 18.02,-0.02 25.17,0.45 7.6,0.51 14.1,1.37 19.45,2.57l0 0.01c7.6,1.67 14.67,4.1 21.14,7.25 6.55,3.2 12.65,7.23 18.28,12.06 7,6.02 13.19,12.89 18.49,20.61 5.29,7.69 9.72,16.23 13.26,25.61 3.52,9.23 6.21,19.08 8.04,29.55 1.81,10.34 2.81,21.38 3,33.07 0.17,10 -0.22,19.39 -1.17,28.1 -0.99,8.97 -2.56,17.41 -4.71,25.26l-0.01 0c-2.09,7.77 -4.55,14.96 -7.35,21.54 -2.83,6.65 -6.06,12.7 -9.68,18.1l0.03 0.02c-3.48,5.24 -7.21,10.02 -11.18,14.31 -3.9,4.21 -8.1,7.95 -12.59,11.19l0.01 0.01c-4.45,3.26 -9.29,6.1 -14.48,8.5 -5.14,2.38 -10.75,4.41 -16.81,6.08 -6.06,1.67 -12.46,2.93 -19.17,3.79 -6.48,0.83 -13.59,1.33 -21.33,1.46l-85.73 1.57 -10 0.19 -0.18 -10.5zm50.79 -40.77l40.72 -0.74c7.39,-0.13 14.02,-0.62 19.83,-1.44 5.44,-0.78 10.07,-1.86 13.85,-3.24 3.71,-1.35 7.05,-2.97 10.01,-4.83 2.79,-1.75 5.17,-3.71 7.14,-5.84l0.04 -0.04c3.05,-3.27 5.76,-7.16 8.13,-11.6 2.48,-4.68 4.61,-9.99 6.37,-15.91 1.76,-5.96 3.08,-12.67 3.92,-20.1 0.87,-7.66 1.24,-15.91 1.1,-24.7 -0.2,-12.16 -1.34,-22.91 -3.4,-32.21 -1.94,-8.76 -4.71,-16.1 -8.29,-22.02 -3.67,-6.04 -7.67,-11.03 -11.99,-14.96 -4.11,-3.74 -8.52,-6.53 -13.21,-8.33 -3.48,-1.34 -8.19,-2.34 -14.08,-2.96 -6.45,-0.68 -14.15,-0.94 -23.04,-0.78l-39.91 0.73 2.81 168.97zm189 41.99l61.5 -240.21 2.6 -10.15 9.69 2.71 165.91 46.53 9.71 2.73 -2.6 10.14 -7.25 28.36 -2.6 10.17 -9.7 -2.72 -125.87 -35.3 -13.62 53.23 117.25 32.88 9.71 2.73 -2.6 10.15 -7.22 28.18 -2.6 10.16 -9.7 -2.72 -117.26 -32.89 -15.74 61.46 131.2 36.8 9.71 2.73 -2.6 10.14 -7.26 28.35 -2.6 10.16 -9.7 -2.72 -171.25 -48.02 -9.7 -2.72 2.59 -10.16zm293.02 111.87l136.28 -203.71 5.76 -8.59 8.19 6 25.78 18.89 8.22 6.02 -5.74 8.58 -114.47 171.09 87.64 64.22 8.21 6.02 -5.74 8.58 -2.47 3.69 212.1 -108.21 6.19 -3.16 5.05 4.93 9.5 9.26 6.46 -4.86 -3.71 7.56 12.51 12.2 4.94 4.82 -2.39 6.58 -90.91 251.3 -5.3 14.65 -10.93 -10.66 -26.21 -25.59 -5.04 -4.92 2.56 -6.68 26.25 -68.2 -62.51 -61 -61.87 33.14 -6.26 3.36 -5.13 -5 -23.24 -22.69 -1.42 2.13 -8.2 -6.01 -121.62 -89.14 -8.21 -6.02 5.73 -8.58zm273.49 75.66l37.74 36.83 21.18 -54.03c2.47,-6.29 4.84,-12.18 7.1,-17.67 -4.09,2.41 -8.21,4.71 -12.35,6.9l-0.04 0.04 -53.63 27.93zm57.2 221.37l244.68 -73.36 6.61 -1.99 4.15 5.77 7.8 10.83 7.17 -3.62 -4.9 6.77 10.31 14.32 4.06 5.64 -3.43 6.03 -131.23 230.96 -4.04 7.11 0.96 -0.58 205.77 -124.34 8.66 -5.23 5.01 9.09 10.13 18.37 13.28 -8.02 -10.67 12.75 10.93 19.83 3.6 6.53 -4.78 5.64 -117.59 138.99 0 0.03 -4.1 4.83 9.22 -1.91 0.04 0 171.58 -34.95 7 -1.43 3.57 6.49 9.16 16.6 11.2 -2.25 -9.33 5.63 10.14 18.37 5.01 9.1 -8.71 5.26 -205.77 124.34 -8.65 5.23 -5.02 -9.1 -15.15 -27.48 -5 -9.07 8.65 -5.24 120.69 -72.93 -148.29 29.76 -7.01 1.41 -3.57 -6.47 -14.19 -25.72 -3.59 -6.51 4.73 -5.66 100.8 -120.35 -122.58 74.07 -8.7 5.26 -5.01 -9.09 -15.16 -27.48 -5.01 -9.09 2.03 -1.22 -6.9 -9.58 -21.57 -29.97 -4.15 -5.76 3.64 -6.12 37.16 -62.38 -51.42 -71.41 -66.43 21.38 -6.73 2.17 -4.23 -5.87 -20.1 -27.93 -8.8 -12.23 14.07 -4.22zm138.66 11.71l31.06 43.15 29.81 -49.33 0 -0.04c3.32,-5.49 6.62,-10.84 9.92,-16.08 -4.43,1.63 -8.86,3.15 -13.32,4.56l-0.04 0 -57.43 17.74zm132.73 425.59l254.38 -9.23 6.86 -0.24 2.68 6.62 5.07 12.47 7.77 -1.69 -6.3 5.32 6.7 16.51 2.63 6.5 -4.76 5.01 -158.52 167.43 2.41 0.9 183.52 68.59c4.95,1.85 9.76,3.74 14.43,5.67l-35.79 -108.77 -3.26 -9.94 9.51 -3.43 26.53 -9.56 9.49 -3.42 3.28 9.96 55.4 168.4 3.27 9.94 -9.52 3.43 -26.52 9.56 -3.32 1.2 -3.36 -1.28 -199.24 -75.84 -0.32 -0.12 -0.11 -0.05 42.26 128.46 3.27 9.94 -9.52 3.43 -26.52 9.55 -9.49 3.43 -3.28 -9.97 -61.16 -185.92 -3.27 -9.93 0.32 -0.12 -11.55 -28.49 -2.69 -6.64 4.93 -5 50.48 -51.14 -33.37 -82.31 -69.43 3.93 -7 0.4 -2.75 -6.77 -13.05 -32.19 -5.7 -14.07 14.61 -0.53zm131.81 46.45l20.18 49.74 40.35 -40.35c4.57,-4.56 9.02,-8.93 13.35,-13.11 -4.65,0.45 -9.32,0.8 -13.98,1.04l-0.08 0 -59.82 2.68zm134.44 354.72c20.23,-5.28 39.01,-7.14 56.31,-5.59 17.69,1.59 33.9,6.75 48.58,15.45 14.62,8.67 26.72,19.86 36.29,33.54 9.5,13.58 16.45,29.56 20.82,47.93 2.84,11.93 4.18,23.75 4.02,35.37 -0.16,11.76 -1.84,23.23 -5.04,34.34l-0.04 0.04c-3.26,11.29 -7.9,21.7 -13.88,31.18 -5.99,9.49 -13.34,18.11 -22.04,25.81 -8.55,7.59 -18.1,14.1 -28.58,19.51 -10.41,5.37 -21.76,9.66 -34,12.85 -12.35,3.22 -24.45,4.99 -36.28,5.28 -11.95,0.29 -23.52,-0.91 -34.66,-3.63 -11.37,-2.77 -21.8,-7 -31.3,-12.68l0.01 -0.02c-9.51,-5.69 -18.08,-12.85 -25.7,-21.47l-0.03 0c-7.48,-8.48 -13.77,-17.67 -18.86,-27.59 -5.08,-9.91 -8.98,-20.55 -11.68,-31.9 -2.91,-12.21 -4.26,-24.21 -4.05,-35.97 0.21,-11.83 2.03,-23.39 5.45,-34.66l-0.02 0c3.37,-11.26 8.12,-21.64 14.2,-31.14 6.1,-9.52 13.52,-18.09 22.19,-25.68 8.49,-7.45 17.64,-13.78 27.4,-18.97 9.71,-5.16 20.03,-9.17 30.89,-12zm12.15 53.44c-12.8,3.34 -23.74,8.08 -32.82,14.22 -8.8,5.94 -15.88,13.23 -21.23,21.86l-0.02 -0.01c-5.34,8.65 -8.74,17.71 -10.18,27.11 -1.44,9.41 -0.92,19.34 1.56,29.77l0.01 0c2.53,10.64 6.58,19.81 12.15,27.51 5.52,7.65 12.61,13.94 21.24,18.84 8.62,4.91 18.43,7.77 29.37,8.55 11.35,0.82 23.96,-0.57 37.76,-4.17 8.73,-2.28 16.69,-5.18 23.82,-8.66l0 -0.04c7.19,-3.51 13.57,-7.57 19.09,-12.14 5.44,-4.5 10.03,-9.5 13.77,-14.98 3.68,-5.42 6.55,-11.31 8.56,-17.64l-0.02 -0.01c2.03,-6.49 3.15,-13.05 3.33,-19.65 0.19,-6.66 -0.56,-13.54 -2.24,-20.6l0 -0.04c-2.38,-10.01 -6.21,-18.86 -11.46,-26.49 -5.27,-7.65 -12.04,-14.22 -20.31,-19.7l-0.04 0c-7.9,-5.24 -17.66,-8.24 -29.26,-8.97 -12.33,-0.77 -26.71,0.98 -43.08,5.24zm-63.96 249.45l233.23 -47.45 9.83 -2 1.92 10.34 6.16 33.14 1.02 5.47 -3.81 3.95 -135.85 141.12 150.71 -30.66 9.82 -2 1.93 10.35 5.75 30.97 1.91 10.29 -9.89 2.01 -233.24 47.45 -9.83 2.01 -1.92 -10.36 -6.15 -33.13 -1.01 -5.46 3.8 -3.96 135.99 -141.15 -150.84 30.69 -9.83 2 -1.92 -10.35 -5.76 -30.97 -1.91 -10.28 9.89 -2.02zm43.48 252.74l235.84 -30.3 9.98 -1.28 1.22 10.45 3.82 32.64 1.23 10.44 -9.99 1.28 -235.82 30.3 -9.97 1.28 -1.23 -10.45 -3.83 -32.64 -1.22 -10.43 9.97 -1.29zm12.71 61.43l244.65 73.5 6.67 2 0.6 7.2 1.13 13.5 7.94 0.92 -7.61 3.03 1.49 17.86 0.59 7 -6.01 3.24 -228.22 123.08 -13.31 7.17 -1.3 -15.6 -3.13 -37.37 -0.59 -7.15 6.21 -3.18 63.06 -32.28 -7.44 -89.12 -67.12 -18.69 -6.85 -1.9 -0.61 -7.35 -2.92 -34.84 -1.27 -15.23 14.04 4.21zm111.72 86.86l4.49 53.82 50.29 -25.32c5.95,-2.99 11.46,-5.71 16.51,-8.14 -4.58,-1.08 -9.09,-2.25 -13.54,-3.51l-0.04 -0.04 -57.71 -16.81zm-91.59 249.28l237.57 4.34 10.03 0.19 -0.18 10.47 -1.56 93.78c-0.14,8.77 -0.46,16.24 -0.93,22.4 -0.52,6.8 -1.24,12.57 -2.13,17.25l-0.02 0c-1.18,6.66 -2.87,12.87 -5.04,18.58 -2.27,5.98 -5.03,11.33 -8.25,16.04l-0.02 -0.02c-3.31,4.84 -7.29,9.19 -11.84,13.02 -4.49,3.76 -9.6,7.06 -15.31,9.86 -5.69,2.78 -11.64,4.84 -17.81,6.16l-0.04 0c-6.12,1.29 -12.49,1.88 -19.08,1.76 -11.38,-0.21 -21.88,-2.29 -31.45,-6.25l0 -0.01c-9.7,-4.01 -18.49,-9.93 -26.3,-17.7l-0.04 -0.04c-8.17,-8.19 -14.17,-19.34 -17.96,-33.41 -3.54,-13.15 -5.16,-29.04 -4.86,-47.65l0.89 -53.33 -86.54 -1.58 -10.03 -0.18 0.17 -10.48 0.56 -32.88 0.17 -10.5 10 0.18zm133.75 56.32l-0.9 53.81c-0.16,9.71 0.54,17.96 2.11,24.68 1.37,5.93 3.41,10.55 6.09,13.81 2.65,3.24 5.91,5.71 9.75,7.4l0 0.04c4.09,1.8 8.92,2.75 14.47,2.85 4.02,0.07 7.71,-0.36 11.06,-1.32l0 -0.01c3.19,-0.92 6.14,-2.34 8.82,-4.26 2.66,-1.91 4.85,-4.07 6.51,-6.47l0 -0.03c1.7,-2.42 2.98,-5.2 3.86,-8.31l0 0c0.57,-2.22 1.05,-5.5 1.42,-9.83 0.4,-4.81 0.68,-10.83 0.8,-18.03l0.88 -53.15 -64.87 -1.18zm-138.37 177.13l237.45 8.68 10.06 0.37 -0.35 10.44 -6 179.67 -0.35 10.52 -9.98 -0.36 -28.04 -1.02 -10.05 -0.37 0.35 -10.45 4.55 -136.36 -52.67 -1.93 -4.23 126.97 -0.35 10.52 -9.98 -0.36 -27.86 -1.02 -10.06 -0.36 0.35 -10.45 4.24 -127.05 -60.8 -2.22 -4.74 142.07 -0.35 10.53 -9.98 -0.37 -28.03 -1.03 -10.05 -0.36 0.35 -10.45 6.18 -185.46 0.36 -10.52 9.98 0.37zm-15.38 229.02l236.3 25.99 10 1.11 -1.04 10.41 -11.01 109.63c-1.15,11.46 -2.75,21.57 -4.76,30.28 -2.09,9.06 -4.67,16.73 -7.74,23 -3.23,6.6 -7.35,12.38 -12.34,17.33 -4.94,4.91 -10.77,9.05 -17.46,12.4l-0.04 0.04c-6.56,3.24 -13.39,5.48 -20.44,6.69 -6.99,1.21 -14.19,1.41 -21.55,0.59 -9.66,-1.05 -18.42,-3.68 -26.26,-7.86 -7.93,-4.23 -14.93,-10.05 -20.99,-17.46 -6.03,-7.34 -10.66,-16.32 -13.86,-26.88l-0.04 0c-0.84,-2.79 -1.58,-5.69 -2.22,-8.72l-0.04 0.03c-5.07,4.7 -10.63,9.14 -16.64,13.31 -5.96,4.14 -12.5,8.11 -19.55,11.9l-0.11 0.04 -68.64 35.94 -16.37 8.58 1.91 -19.02 4.14 -41.18 0.58 -5.76 4.96 -2.58 52.46 -27.3c7.19,-3.81 13.76,-7.41 19.68,-10.82 5.6,-3.22 10.38,-6.14 14.28,-8.73l0.08 -0.05c3.78,-2.46 6.94,-4.78 9.46,-6.92 2.36,-2 4.18,-3.85 5.43,-5.5l0.04 -0.08c1.48,-1.91 2.73,-3.79 3.72,-5.61 0.92,-1.66 1.71,-3.39 2.35,-5.18 0.42,-1.43 0.84,-3.42 1.25,-5.94 0.45,-2.84 0.89,-6.22 1.28,-10.11l2.76 -27.53 -94.91 -10.45 -10 -1.09 1.05 -10.42 3.28 -32.71 1.06 -10.46 9.94 1.09zm136.61 69.2l-6.02 59.91c-0.71,7.06 -0.99,13.36 -0.85,18.8 0.13,5.01 0.65,9.39 1.55,13.1l0 0.04c0.82,3.38 1.97,6.33 3.44,8.82 1.42,2.42 3.22,4.54 5.36,6.34 2.27,1.9 4.68,3.41 7.23,4.52l0 0.02c2.51,1.08 5.19,1.78 8.04,2.09 4.21,0.46 8.05,0.12 11.5,-1.04 3.43,-1.15 6.63,-3.13 9.56,-5.94l0 -0.04c2.9,-2.76 5.31,-6.65 7.19,-11.62 2.11,-5.58 3.59,-12.51 4.42,-20.74l6.81 -67.85 -58.23 -6.41zm43.75 403.9l-6.54 32.23 -2.08 10.29 -9.82 -2.19 -134.31 -29.88c-12.13,-2.69 -22.93,-5.86 -32.34,-9.47 -9.66,-3.7 -18,-7.95 -24.98,-12.7 -7.27,-4.97 -13.57,-11.06 -18.82,-18.24 -5.17,-7.05 -9.35,-15.19 -12.54,-24.37l-0.01 0.01c-3.23,-9.23 -4.97,-19.42 -5.22,-30.56 -0.25,-10.82 0.9,-22.47 3.43,-34.92 2.46,-12.12 5.72,-23 9.77,-32.56 4.14,-9.79 9.15,-18.3 15,-25.45l0 0c5.92,-7.3 12.65,-13.26 20.13,-17.84l0 -0.04c7.42,-4.54 15.63,-7.69 24.56,-9.44l0 0c8.53,-1.69 18.22,-2.19 29.03,-1.54 10.58,0.65 22.25,2.41 35,5.24l134.31 29.88 9.83 2.19 -2.09 10.27 -6.53 32.17 -2.09 10.29 -9.82 -2.18 -134.14 -29.85c-9.61,-2.13 -18.05,-3.52 -25.29,-4.16 -6.88,-0.6 -12.5,-0.53 -16.8,0.21 -4,0.68 -7.68,2.02 -11.03,3.97 -3.35,1.95 -6.47,4.62 -9.31,7.96l-0.02 -0.02c-2.93,3.45 -5.43,7.5 -7.49,12.12 -2.14,4.78 -3.84,10.29 -5.1,16.47 -2.19,10.8 -2.91,20.17 -2.16,28.06 0.68,7.16 2.59,13.11 5.73,17.82l-0.03 0.01c3.1,4.65 8.53,8.93 16.27,12.83l0.04 0c8.58,4.32 19.79,8.02 33.58,11.09l134.14 29.84 9.83 2.19 -2.09 10.27zm-247.38 -1.94l203.24 160.38 5.52 4.35 -1.9 6.92 -3.58 13.06 7.05 3.81 -8.09 -0.03 -4.72 17.22 -1.86 6.8 -6.74 0.77 -255.2 29.3 -12.06 1.39 6.45 2.32 224.66 80.97 9.52 3.43 -3.27 9.93 -10.51 31.92 -1.74 5.31 -5.21 1.44 -185.02 51.1 145.1 52.3 9.52 3.43 -3.27 9.93 -9.82 29.84 -3.27 9.97 -9.5 -3.43 -224.66 -80.96 -9.52 -3.43 3.27 -9.94 10.5 -31.92 1.75 -5.3 5.21 -1.44 185.15 -51.06 -145.23 -52.34 -9.51 -3.43 3.27 -9.94 9.81 -29.84 3.28 -9.96 0.59 0.22 3.78 -13.83 9.89 -36.06 1.91 -6.97 6.88 -0.64 69.94 -6.48 23.54 -85.93 -56.3 -42.66 -5.7 -4.32 1.93 -7.07 9.21 -33.61 4.04 -14.73 11.67 9.21zm74.53 122.97l-14.21 51.91 55.62 -4.78c6.27,-0.54 12.35,-1 18.22,-1.38 -3.9,-2.71 -7.72,-5.51 -11.47,-8.38l-0.04 -0.04 -48.12 -37.33zm-219.72 336.63l179.93 188.42 4.86 5.08 -2.81 6.6 -5.26 12.35 6.55 4.85 -8.09 -1.22 -6.97 16.38 -2.72 6.43 -6.71 -0.22 -256.61 -8.16 -14.96 -0.47 6.07 -14.29 14.58 -34.27 2.8 -6.57 6.87 0.36 70.15 3.77 34.75 -81.68 -50.09 -50.45 -5.06 -5.1 2.86 -6.75 13.59 -31.94 5.94 -13.94 10.33 10.82zm57.44 132.58l-21 49.36 55.67 3.36 0.04 0c6.3,0.39 12.39,0.82 18.27,1.29 -3.5,-3.26 -6.92,-6.59 -10.25,-9.97l-0.03 -0.05 -42.7 -43.99z"/>
   <path class="fil17" d="M1836.57 2727.81c1.69,8.43 3.93,27.42 5.04,36.91 1.12,9.49 1.12,9.49 -96.81,188.73 -97.93,179.24 -293.8,537.73 -391.73,716.97 -97.93,179.24 -97.93,179.24 -103.41,176.74 -5.49,-2.51 -16.45,-7.51 -21.93,-10.01 -5.48,-2.51 -5.48,-2.51 96.24,-187.68 101.71,-185.18 305.15,-555.53 407.45,-741.76 102.3,-186.24 103.46,-188.34 105.15,-179.9z"/>
   <path class="fil17" d="M1815.61 2713.18c-7.84,2.62 -24.73,9.95 -33.17,13.61 -8.43,3.67 -8.43,3.67 -109.1,181.24 -100.66,177.58 -302,532.73 -402.67,710.31 -100.66,177.57 -100.66,177.57 -95.88,181.33 4.79,3.75 14.36,11.27 19.14,15.02 4.79,3.76 4.79,3.76 108.51,-180.19 103.73,-183.95 311.19,-551.85 415.51,-736.85 104.33,-185 105.51,-187.09 97.66,-184.47z"/>
   <path class="fil17" d="M1756.73 2518.72c0.27,7.18 -0.41,23.13 -0.74,31.1 -0.35,7.96 -0.35,7.96 -104.65,141.19 -104.31,133.21 -312.92,399.66 -417.22,532.88 -104.31,133.22 -104.31,133.22 -108.49,130.36 -4.18,-2.85 -12.53,-8.56 -16.71,-11.41 -4.18,-2.86 -4.18,-2.86 104.03,-140.41 108.21,-137.55 324.62,-412.66 433.45,-550.99 108.82,-138.34 110.05,-139.91 110.33,-132.72z"/>
   <path class="fil17" d="M1742.92 2484.64c-6.81,0.94 -21.71,4.34 -29.16,6.04 -7.44,1.71 -7.44,1.71 -115.18,131.9 -107.73,130.19 -323.21,390.58 -430.95,520.77 -107.74,130.2 -107.74,130.2 -104.34,134.02 3.4,3.83 10.19,11.48 13.58,15.3 3.4,3.83 3.4,3.83 114.55,-131.13 111.16,-134.95 333.47,-404.86 445.26,-540.58 111.79,-135.72 113.05,-137.26 106.24,-136.32z"/>
   <path class="fil17" d="M1745.77 2709.79c0.52,7.16 0.38,23.12 0.32,31.1 -0.07,7.97 -0.07,7.97 -99.78,145 -99.71,137.02 -299.13,411.06 -398.84,548.09 -99.71,137.02 -99.71,137.02 -103.98,134.32 -4.27,-2.7 -12.82,-8.09 -17.09,-10.78 -4.27,-2.7 -4.27,-2.7 99.19,-144.2 103.46,-141.49 310.38,-424.49 414.44,-566.79 104.04,-142.31 105.22,-143.92 105.74,-136.74z"/>
   <path class="fil17" d="M1730.81 2676.24c-6.77,1.19 -21.54,5.15 -28.93,7.13 -7.38,1.98 -7.38,1.98 -110.62,136.1 -103.24,134.13 -309.73,402.38 -412.97,536.5 -103.24,134.13 -103.24,134.13 -99.72,137.82 3.53,3.7 10.58,11.09 14.1,14.79 3.53,3.69 3.53,3.69 110.02,-135.32 106.49,-139 319.48,-417.02 426.59,-556.83 107.1,-139.8 108.31,-141.38 101.53,-140.19z"/>
   <path class="fil17" d="M2568.85 2744.65c-1.69,8.43 -3.93,27.42 -5.04,36.91 -1.11,9.49 -1.11,9.49 96.81,188.73 97.94,179.24 293.8,537.73 391.73,716.97 97.93,179.24 97.93,179.24 103.41,176.74 5.49,-2.51 16.45,-7.51 21.93,-10.01 5.48,-2.51 5.48,-2.51 -96.23,-187.68 -101.72,-185.18 -305.16,-555.53 -407.46,-741.76 -102.3,-186.24 -103.45,-188.34 -105.15,-179.9z"/>
   <path class="fil17" d="M2589.81 2730.02c7.85,2.62 24.73,9.95 33.17,13.61 8.44,3.67 8.44,3.67 109.1,181.24 100.67,177.58 302,532.73 402.67,710.31 100.66,177.57 100.66,177.57 95.88,181.33 -4.79,3.75 -14.36,11.27 -19.14,15.02 -4.78,3.76 -4.78,3.76 -108.51,-180.19 -103.73,-183.95 -311.19,-551.85 -415.51,-736.85 -104.33,-185 -105.51,-187.09 -97.66,-184.47z"/>
   <path class="fil17" d="M2665.96 2555.65c-0.28,7.18 0.4,23.13 0.74,31.1 0.34,7.97 0.34,7.97 104.65,141.19 104.3,133.22 312.92,399.66 417.22,532.88 104.31,133.22 104.31,133.22 108.48,130.37 4.18,-2.86 12.54,-8.57 16.71,-11.42 4.18,-2.86 4.18,-2.86 -104.03,-140.41 -108.2,-137.55 -324.62,-412.66 -433.44,-550.99 -108.83,-138.34 -110.06,-139.9 -110.33,-132.72z"/>
   <path class="fil17" d="M2679.77 2521.57c6.81,0.94 21.7,4.34 29.15,6.04 7.44,1.71 7.44,1.71 115.18,131.9 107.74,130.19 323.22,390.59 430.96,520.78 107.73,130.19 107.73,130.19 104.34,134.01 -3.4,3.83 -10.19,11.48 -13.59,15.3 -3.4,3.83 -3.4,3.83 -114.55,-131.12 -111.15,-134.96 -333.47,-404.86 -445.25,-540.59 -111.79,-135.72 -113.06,-137.25 -106.24,-136.32z"/>
   <path class="fil17" d="M2676.92 2746.72c-0.52,7.17 -0.39,23.12 -0.32,31.1 0.07,7.98 0.07,7.98 99.78,145 99.71,137.02 299.13,411.07 398.83,548.09 99.71,137.02 99.71,137.02 103.98,134.33 4.28,-2.71 12.82,-8.1 17.09,-10.79 4.27,-2.7 4.27,-2.7 -99.19,-144.2 -103.46,-141.49 -310.38,-424.49 -414.43,-566.79 -104.05,-142.3 -105.23,-143.91 -105.74,-136.74z"/>
   <path class="fil17" d="M2691.87 2713.18c6.78,1.18 21.55,5.14 28.93,7.12 7.38,1.98 7.38,1.98 110.63,136.1 103.24,134.13 309.72,402.38 412.97,536.51 103.23,134.12 103.23,134.12 99.71,137.82 -3.53,3.69 -10.57,11.09 -14.09,14.78 -3.53,3.7 -3.53,3.7 -110.02,-135.31 -106.5,-139.01 -319.49,-417.03 -426.59,-556.83 -107.1,-139.8 -108.31,-141.38 -101.54,-140.19z"/>
   <path class="fil17" d="M1709.23 2429.59c-0.28,6.21 -2.03,19.91 -2.9,26.75 -0.88,6.84 -0.88,6.84 -100.51,113.39 -99.64,106.54 -298.91,319.64 -398.55,426.18 -99.64,106.55 -99.64,106.55 -103.03,103.75 -3.39,-2.79 -10.18,-8.38 -13.58,-11.17 -3.39,-2.8 -3.39,-2.8 99.93,-112.77 103.31,-109.97 309.94,-329.91 413.85,-440.5 103.9,-110.6 105.08,-111.85 104.79,-105.63z"/>
   <path class="fil17" d="M1699.81 2399.1c-5.94,0.27 -19.03,2.01 -25.58,2.89 -6.54,0.87 -6.54,0.87 -108.92,104.53 -102.37,103.66 -307.12,310.99 -409.5,414.65 -102.37,103.66 -102.37,103.66 -99.73,107.23 2.66,3.57 7.95,10.71 10.6,14.28 2.66,3.57 2.66,3.57 108.32,-103.93 105.67,-107.49 317.01,-322.48 423.28,-430.58 106.27,-108.11 107.47,-109.33 101.53,-109.07z"/>
   <path class="fil17" d="M1704.4 2339.7c-1.68,4.17 -6.15,13.06 -8.38,17.5 -2.23,4.44 -2.23,4.44 -95.74,51.06 -93.52,46.62 -280.54,139.85 -374.05,186.47 -93.52,46.62 -93.52,46.62 -95.16,43.82 -1.65,-2.8 -4.95,-8.39 -6.6,-11.18 -1.65,-2.8 -1.65,-2.8 95.2,-50.79 96.84,-47.99 290.53,-143.98 387.92,-192.24 97.4,-48.26 98.5,-48.81 96.81,-44.64z"/>
   <path class="fil17" d="M1716.67 2274.65c-4.12,-1.38 -13.47,-3.62 -18.15,-4.74 -4.68,-1.12 -4.68,-1.12 -99.37,42.81 -94.69,43.94 -284.08,131.8 -378.77,175.73 -94.69,43.93 -94.69,43.93 -93.74,47.06 0.96,3.13 2.87,9.39 3.82,12.52 0.96,3.14 0.96,3.14 98.82,-42.55 97.85,-45.68 293.57,-137.05 391.98,-182.99 98.41,-45.95 99.53,-46.47 95.41,-47.84z"/>
   <path class="fil17" d="M1408.81 2458.99c-1.8,-0.97 -5.94,-2.69 -8.01,-3.55 -2.07,-0.86 -2.07,-0.86 -47.52,18.81 -45.45,19.66 -136.34,59 -181.79,78.66 -45.44,19.67 -45.44,19.67 -45.17,21.46 0.27,1.79 0.8,5.38 1.07,7.17 0.27,1.79 0.27,1.79 47.25,-18.69 46.98,-20.49 140.94,-61.45 188.19,-82.05 47.25,-20.6 47.78,-20.83 45.98,-21.81z"/>
   <path class="fil17" d="M1781.86 2141.49c-2.37,3.78 -8.29,11.69 -11.25,15.64 -2.96,3.95 -2.96,3.95 -102.96,32.22 -99.99,28.28 -299.98,84.82 -399.97,113.1 -99.99,28.27 -99.99,28.27 -101.13,25.21 -1.14,-3.07 -3.43,-9.19 -4.57,-12.25 -1.14,-3.06 -1.14,-3.06 102.36,-32.06 103.51,-29 310.52,-86.99 414.62,-116.15 104.09,-29.17 105.27,-29.5 102.9,-25.71z"/>
   <path class="fil17" d="M1805.09 2079.8c-3.81,-2.13 -12.63,-6.09 -17.04,-8.07 -4.41,-1.98 -4.41,-1.98 -105.1,23.43 -100.69,25.41 -302.08,76.23 -402.77,101.63 -100.69,25.41 -100.69,25.41 -100.29,28.67 0.4,3.26 1.2,9.78 1.6,13.04 0.41,3.26 0.41,3.26 104.51,-23.28 104.11,-26.54 312.32,-79.61 417.02,-106.3 104.7,-26.69 105.89,-26.99 102.07,-29.12z"/>
   <path class="fil17" d="M1474.54 2190.59c-1.65,-1.23 -5.52,-3.55 -7.45,-4.7 -1.93,-1.16 -1.93,-1.16 -49.58,11.6 -47.64,12.75 -142.93,38.27 -190.57,51.02 -47.64,12.76 -47.64,12.76 -47.62,14.57 0.03,1.82 0.07,5.44 0.1,7.26 0.02,1.81 0.02,1.81 49.3,-11.53 49.27,-13.33 147.81,-40.01 197.36,-53.42 49.56,-13.42 50.12,-13.57 48.46,-14.8z"/>
   <path class="fil17" d="M1723.94 2054.09c-2.56,2.21 -8.57,6.54 -11.57,8.7 -3,2.16 -3,2.16 -78.11,-7.21 -75.1,-9.37 -225.32,-28.11 -300.43,-37.48 -75.11,-9.38 -75.11,-9.38 -75.12,-12.13 -0.01,-2.76 -0.03,-8.28 -0.05,-11.03 -0.01,-2.76 -0.01,-2.76 77.67,7.15 77.68,9.91 233.04,29.73 311.16,39.7 78.12,9.97 79.01,10.08 76.45,12.3z"/>
   <path class="fil17" d="M1755.16 2013.09c-2.06,-2.87 -7.07,-8.75 -9.57,-11.69 -2.51,-2.94 -2.51,-2.94 -77.38,-14.78 -74.86,-11.83 -224.6,-35.5 -299.47,-47.34 -74.87,-11.83 -74.87,-11.83 -75.41,-9.15 -0.54,2.68 -1.62,8.04 -2.16,10.72 -0.54,2.68 -0.54,2.68 76.93,14.7 77.47,12.03 232.42,36.09 310.33,48.18 77.92,12.1 78.8,12.23 76.73,9.36z"/>
   <path class="fil17" d="M1502.55 1995.69c-0.82,-1.49 -2.87,-4.52 -3.9,-6.04 -1.02,-1.51 -1.02,-1.51 -36.63,-6.54 -35.61,-5.02 -106.83,-15.07 -142.43,-20.1 -35.61,-5.02 -35.61,-5.02 -36.05,-3.59 -0.43,1.43 -1.31,4.28 -1.74,5.71 -0.44,1.43 -0.44,1.43 36.42,6.51 36.86,5.08 110.59,15.25 147.66,20.36 37.07,5.11 37.49,5.17 36.67,3.69z"/>
  </g>
 </g>
</svg>
